<svg width="492" height="233" viewBox="0 0 492 233" fill="none" xmlns="http://www.w3.org/2000/svg">
<path d="M91.6 185.5H92.1V185H91.6V185.5ZM91.6 232H91.1V232.5H91.6V232ZM131.5 232V232.5H132V232H131.5ZM131.5 185.5V185H131V185.5H131.5ZM153.7 185.5V186H154.2V185.5H153.7ZM153.7 148H154.2V147.5H153.7V148ZM131.5 148H131V148.5H131.5V148ZM131.5 0.399996H132V-0.100004H131.5V0.399996ZM91.6 0.399996V-0.100004H91.3129L91.1681 0.148008L91.6 0.399996ZM0.4 156.7L-0.0318594 156.448L-0.122892 156.604L-0.093197 156.782L0.4 156.7ZM5.2 185.5L4.7068 185.582L4.77644 186H5.2V185.5ZM91.6 148V148.5H92.1V148H91.6ZM50.2 148L49.7598 147.763L49.3627 148.5H50.2V148ZM96.1 62.8L96.5981 62.8439L95.6598 62.5629L96.1 62.8ZM91.6 113.8L91.1019 113.756L91.1 113.778V113.8H91.6ZM91.6 185H89.6364V186H91.6V185ZM85.7091 185H81.7818V186H85.7091V185ZM77.8546 185H73.9273V186H77.8546V185ZM70 185H66.0727V186H70V185ZM62.1455 185H58.2182V186H62.1455V185ZM54.2909 185H50.3636V186H54.2909V185ZM46.4364 185H42.5091V186H46.4364V185ZM38.5818 185H34.6545V186H38.5818V185ZM30.7273 185H26.8V186H30.7273V185ZM22.8727 185H18.9454V186H22.8727V185ZM15.0182 185H11.0909V186H15.0182V185ZM7.16361 185H5.2V186H7.16361V185ZM5.6932 185.418L5.3932 183.618L4.4068 183.782L4.7068 185.582L5.6932 185.418ZM4.7932 180.018L4.1932 176.418L3.2068 176.582L3.8068 180.182L4.7932 180.018ZM3.5932 172.818L2.9932 169.218L2.0068 169.382L2.6068 172.982L3.5932 172.818ZM2.3932 165.618L1.7932 162.018L0.806803 162.182L1.4068 165.782L2.3932 165.618ZM1.1932 158.418L0.893197 156.618L-0.093197 156.782L0.206803 158.582L1.1932 158.418ZM0.831859 156.952L1.82316 155.253L0.959445 154.749L-0.0318594 156.448L0.831859 156.952ZM3.80577 151.855L5.78838 148.457L4.92466 147.953L2.94205 151.351L3.80577 151.855ZM7.77099 145.06L9.7536 141.662L8.88988 141.158L6.90727 144.556L7.77099 145.06ZM11.7362 138.264L13.7188 134.866L12.8551 134.362L10.8725 137.76L11.7362 138.264ZM15.7014 131.468L17.684 128.07L16.8203 127.566L14.8377 130.964L15.7014 131.468ZM19.6666 124.673L21.6493 121.275L20.7855 120.771L18.8029 124.169L19.6666 124.673ZM23.6319 117.877L25.6145 114.479L24.7507 113.975L22.7681 117.373L23.6319 117.877ZM27.5971 111.081L29.5797 107.684L28.716 107.18L26.7334 110.577L27.5971 111.081ZM31.5623 104.286L33.5449 100.888L32.6812 100.384L30.6986 103.782L31.5623 104.286ZM35.5275 97.49L37.5101 94.0922L36.6464 93.5882L34.6638 96.9861L35.5275 97.49ZM39.4927 90.6944L41.4753 87.2965L40.6116 86.7926L38.629 90.1904L39.4927 90.6944ZM43.458 83.8987L45.4406 80.5009L44.5768 79.9969L42.5942 83.3947L43.458 83.8987ZM47.4232 77.1031L49.4058 73.7052L48.5421 73.2012L46.5595 76.5991L47.4232 77.1031ZM51.3884 70.3074L53.371 66.9096L52.5073 66.4056L50.5247 69.8034L51.3884 70.3074ZM55.3536 63.5117L57.3362 60.1139L56.4725 59.6099L54.4899 63.0078L55.3536 63.5117ZM59.3188 56.7161L61.3014 53.3183L60.4377 52.8143L58.4551 56.2121L59.3188 56.7161ZM63.2841 49.9204L65.2667 46.5226L64.4029 46.0186L62.4203 49.4165L63.2841 49.9204ZM67.2493 43.1248L69.2319 39.727L68.3682 39.223L66.3856 42.6208L67.2493 43.1248ZM71.2145 36.3291L73.1971 32.9313L72.3334 32.4273L70.3508 35.8252L71.2145 36.3291ZM75.1797 29.5335L77.1623 26.1357L76.2986 25.6317L74.316 29.0295L75.1797 29.5335ZM79.1449 22.7378L81.1275 19.34L80.2638 18.836L78.2812 22.2339L79.1449 22.7378ZM83.1101 15.9422L85.0927 12.5444L84.229 12.0404L82.2464 15.4382L83.1101 15.9422ZM87.0753 9.14656L89.0579 5.74874L88.1942 5.24476L86.2116 8.64258L87.0753 9.14656ZM91.0406 2.35091L92.0319 0.651983L91.1681 0.148008L90.1768 1.84694L91.0406 2.35091ZM91.6 0.899996H93.595V-0.100004H91.6V0.899996ZM97.585 0.899996H101.575V-0.100004H97.585V0.899996ZM105.565 0.899996H109.555V-0.100004H105.565V0.899996ZM113.545 0.899996H117.535V-0.100004H113.545V0.899996ZM121.525 0.899996H125.515V-0.100004H121.525V0.899996ZM129.505 0.899996H131.5V-0.100004H129.505V0.899996ZM131 0.399996V2.45H132V0.399996H131ZM131 6.55V10.65H132V6.55H131ZM131 14.75V18.85H132V14.75H131ZM131 22.95V27.05H132V22.95H131ZM131 31.15V35.25H132V31.15H131ZM131 39.35V43.45H132V39.35H131ZM131 47.55V51.65H132V47.55H131ZM131 55.75V59.85H132V55.75H131ZM131 63.95V68.05H132V63.95H131ZM131 72.15V76.25H132V72.15H131ZM131 80.35V84.45H132V80.35H131ZM131 88.55V92.65H132V88.55H131ZM131 96.75V100.85H132V96.75H131ZM131 104.95V109.05H132V104.95H131ZM131 113.15V117.25H132V113.15H131ZM131 121.35V125.45H132V121.35H131ZM131 129.55V133.65H132V129.55H131ZM131 137.75V141.85H132V137.75H131ZM131 145.95V148H132V145.95H131ZM131.5 148.5H133.35V147.5H131.5V148.5ZM137.05 148.5H140.75V147.5H137.05V148.5ZM144.45 148.5H148.15V147.5H144.45V148.5ZM151.85 148.5H153.7V147.5H151.85V148.5ZM153.2 148V149.875H154.2V148H153.2ZM153.2 153.625V157.375H154.2V153.625H153.2ZM153.2 161.125V164.875H154.2V161.125H153.2ZM153.2 168.625V172.375H154.2V168.625H153.2ZM153.2 176.125V179.875H154.2V176.125H153.2ZM153.2 183.625V185.5H154.2V183.625H153.2ZM153.7 185H151.85V186H153.7V185ZM148.15 185H144.45V186H148.15V185ZM140.75 185H137.05V186H140.75V185ZM133.35 185H131.5V186H133.35V185ZM131 185.5V187.438H132V185.5H131ZM131 191.312V195.188H132V191.312H131ZM131 199.062V202.938H132V199.062H131ZM131 206.812V210.688H132V206.812H131ZM131 214.562V218.438H132V214.562H131ZM131 222.312V226.188H132V222.312H131ZM131 230.062V232H132V230.062H131ZM131.5 231.5H129.505V232.5H131.5V231.5ZM125.515 231.5H121.525V232.5H125.515V231.5ZM117.535 231.5H113.545V232.5H117.535V231.5ZM109.555 231.5H105.565V232.5H109.555V231.5ZM101.575 231.5H97.585V232.5H101.575V231.5ZM93.595 231.5H91.6V232.5H93.595V231.5ZM92.1 232V230.062H91.1V232H92.1ZM92.1 226.188V222.312H91.1V226.188H92.1ZM92.1 218.438V214.562H91.1V218.438H92.1ZM92.1 210.688V206.812H91.1V210.688H92.1ZM92.1 202.938V199.062H91.1V202.938H92.1ZM92.1 195.188V191.312H91.1V195.188H92.1ZM92.1 187.438V185.5H91.1V187.438H92.1ZM91.6 147.5H89.53V148.5H91.6V147.5ZM85.39 147.5H81.25V148.5H85.39V147.5ZM77.11 147.5H72.97V148.5H77.11V147.5ZM68.83 147.5H64.69V148.5H68.83V147.5ZM60.55 147.5H56.41V148.5H60.55V147.5ZM52.27 147.5H50.2V148.5H52.27V147.5ZM50.6402 148.237L51.5964 146.462L50.7161 145.988L49.7598 147.763L50.6402 148.237ZM53.5089 142.912L55.4214 139.362L54.5411 138.888L52.6286 142.438L53.5089 142.912ZM57.3339 135.812L59.2464 132.262L58.3661 131.788L56.4536 135.338L57.3339 135.812ZM61.1589 128.712L63.0714 125.162L62.1911 124.688L60.2786 128.238L61.1589 128.712ZM64.9839 121.612L66.8964 118.062L66.0161 117.588L64.1036 121.138L64.9839 121.612ZM68.8089 114.512L70.7214 110.962L69.8411 110.488L67.9286 114.038L68.8089 114.512ZM72.6339 107.412L74.5464 103.862L73.6661 103.388L71.7536 106.938L72.6339 107.412ZM76.4589 100.312L78.3714 96.7621L77.4911 96.2879L75.5786 99.8379L76.4589 100.312ZM80.2839 93.2122L82.1964 89.6621L81.3161 89.1879L79.4036 92.7379L80.2839 93.2122ZM84.1089 86.1122L86.0214 82.5621L85.1411 82.0879L83.2286 85.6379L84.1089 86.1122ZM87.9339 79.0122L89.8464 75.4622L88.9661 74.9879L87.0536 78.5379L87.9339 79.0122ZM91.7589 71.9121L93.6714 68.3622L92.7911 67.8879L90.8786 71.4379L91.7589 71.9121ZM95.5839 64.8122L96.5402 63.0371L95.6598 62.5629L94.7036 64.3379L95.5839 64.8122ZM95.6019 62.7561L95.4144 64.8811L96.4106 64.9689L96.5981 62.8439L95.6019 62.7561ZM95.0394 69.1311L94.6644 73.3811L95.6606 73.4689L96.0356 69.2189L95.0394 69.1311ZM94.2894 77.6311L93.9144 81.8811L94.9106 81.9689L95.2856 77.7189L94.2894 77.6311ZM93.5394 86.1311L93.1644 90.3811L94.1606 90.4689L94.5356 86.2189L93.5394 86.1311ZM92.7894 94.6311L92.4144 98.8811L93.4106 98.9689L93.7856 94.7189L92.7894 94.6311ZM92.0394 103.131L91.6644 107.381L92.6606 107.469L93.0356 103.219L92.0394 103.131ZM91.2894 111.631L91.1019 113.756L92.0981 113.844L92.2856 111.719L91.2894 111.631ZM91.1 113.8V115.938H92.1V113.8H91.1ZM91.1 120.212V124.487H92.1V120.212H91.1ZM91.1 128.762V133.037H92.1V128.762H91.1ZM91.1 137.312V141.587H92.1V137.312H91.1ZM91.1 145.863V148H92.1V145.863H91.1ZM91.6 185.5H92.6V184.5H91.6V185.5ZM91.6 232H90.6V233H91.6V232ZM131.5 232V233H132.5V232H131.5ZM131.5 185.5V184.5H130.5V185.5H131.5ZM153.7 185.5V186.5H154.7V185.5H153.7ZM153.7 148H154.7V147H153.7V148ZM131.5 148H130.5V149H131.5V148ZM131.5 0.399996H132.5V-0.600004H131.5V0.399996ZM91.6 0.399996V-0.600004H91.0257L90.7363 -0.103979L91.6 0.399996ZM0.4 156.7L-0.463719 156.196L-0.645785 156.508L-0.586394 156.864L0.4 156.7ZM5.2 185.5L4.21361 185.664L4.35287 186.5H5.2V185.5ZM91.6 148V149H92.6V148H91.6ZM50.2 148L49.3196 147.526L48.5254 149H50.2V148ZM96.1 62.8L97.0961 62.8879L95.2196 62.3257L96.1 62.8ZM91.6 113.8L90.6039 113.712L90.6 113.756V113.8H91.6ZM91.6 184.5H89.6364V186.5H91.6V184.5ZM85.7091 184.5H81.7818V186.5H85.7091V184.5ZM77.8546 184.5H73.9273V186.5H77.8546V184.5ZM70 184.5H66.0727V186.5H70V184.5ZM62.1455 184.5H58.2182V186.5H62.1455V184.5ZM54.2909 184.5H50.3636V186.5H54.2909V184.5ZM46.4364 184.5H42.5091V186.5H46.4364V184.5ZM38.5818 184.5H34.6545V186.5H38.5818V184.5ZM30.7273 184.5H26.8V186.5H30.7273V184.5ZM22.8727 184.5H18.9454V186.5H22.8727V184.5ZM15.0182 184.5H11.0909V186.5H15.0182V184.5ZM7.16361 184.5H5.2V186.5H7.16361V184.5ZM6.18639 185.336L5.88639 183.536L3.91361 183.864L4.21361 185.664L6.18639 185.336ZM5.28639 179.936L4.68639 176.336L2.71361 176.664L3.31361 180.264L5.28639 179.936ZM4.08639 172.736L3.48639 169.136L1.51361 169.464L2.11361 173.064L4.08639 172.736ZM2.88639 165.536L2.28639 161.936L0.313606 162.264L0.913606 165.864L2.88639 165.536ZM1.68639 158.336L1.38639 156.536L-0.586394 156.864L-0.286394 158.664L1.68639 158.336ZM1.26372 157.204L2.25502 155.505L0.527586 154.497L-0.463719 156.196L1.26372 157.204ZM4.23763 152.107L6.22024 148.709L4.4928 147.701L2.51019 151.099L4.23763 152.107ZM8.20285 145.312L10.1855 141.914L8.45802 140.906L6.47541 144.304L8.20285 145.312ZM12.1681 138.516L14.1507 135.118L12.4232 134.11L10.4406 137.508L12.1681 138.516ZM16.1333 131.72L18.1159 128.322L16.3885 127.314L14.4058 130.712L16.1333 131.72ZM20.0985 124.925L22.0811 121.527L20.3537 120.519L18.3711 123.917L20.0985 124.925ZM24.0637 118.129L26.0463 114.731L24.3189 113.723L22.3363 117.121L24.0637 118.129ZM28.0289 111.333L30.0115 107.935L28.2841 106.928L26.3015 110.325L28.0289 111.333ZM31.9942 104.538L33.9768 101.14L32.2493 100.132L30.2667 103.53L31.9942 104.538ZM35.9594 97.742L37.942 94.3442L36.2145 93.3362L34.2319 96.7341L35.9594 97.742ZM39.9246 90.9464L41.9072 87.5485L40.1798 86.5406L38.1972 89.9384L39.9246 90.9464ZM43.8898 84.1507L45.8724 80.7529L44.145 79.7449L42.1624 83.1428L43.8898 84.1507ZM47.855 77.355L49.8376 73.9572L48.1102 72.9493L46.1276 76.3471L47.855 77.355ZM51.8203 70.5594L53.8029 67.1616L52.0754 66.1536L50.0928 69.5514L51.8203 70.5594ZM55.7855 63.7637L57.7681 60.3659L56.0406 59.358L54.058 62.7558L55.7855 63.7637ZM59.7507 56.9681L61.7333 53.5702L60.0059 52.5623L58.0233 55.9601L59.7507 56.9681ZM63.7159 50.1724L65.6985 46.7746L63.9711 45.7666L61.9885 49.1645L63.7159 50.1724ZM67.6811 43.3768L69.6637 39.9789L67.9363 38.971L65.9537 42.3688L67.6811 43.3768ZM71.6463 36.5811L73.629 33.1833L71.9015 32.1754L69.9189 35.5732L71.6463 36.5811ZM75.6116 29.7855L77.5942 26.3876L75.8667 25.3797L73.8841 28.7775L75.6116 29.7855ZM79.5768 22.9898L81.5594 19.592L79.8319 18.5841L77.8493 21.9819L79.5768 22.9898ZM83.542 16.1942L85.5246 12.7964L83.7971 11.7884L81.8146 15.1862L83.542 16.1942ZM87.5072 9.39854L89.4898 6.00073L87.7624 4.99278L85.7798 8.39059L87.5072 9.39854ZM91.4724 2.6029L92.4637 0.903969L90.7363 -0.103979L89.745 1.59495L91.4724 2.6029ZM91.6 1.4H93.595V-0.600004H91.6V1.4ZM97.585 1.4H101.575V-0.600004H97.585V1.4ZM105.565 1.4H109.555V-0.600004H105.565V1.4ZM113.545 1.4H117.535V-0.600004H113.545V1.4ZM121.525 1.4H125.515V-0.600004H121.525V1.4ZM129.505 1.4H131.5V-0.600004H129.505V1.4ZM130.5 0.399996V2.45H132.5V0.399996H130.5ZM130.5 6.55V10.65H132.5V6.55H130.5ZM130.5 14.75V18.85H132.5V14.75H130.5ZM130.5 22.95V27.05H132.5V22.95H130.5ZM130.5 31.15V35.25H132.5V31.15H130.5ZM130.5 39.35V43.45H132.5V39.35H130.5ZM130.5 47.55V51.65H132.5V47.55H130.5ZM130.5 55.75V59.85H132.5V55.75H130.5ZM130.5 63.95V68.05H132.5V63.95H130.5ZM130.5 72.15V76.25H132.5V72.15H130.5ZM130.5 80.35V84.45H132.5V80.35H130.5ZM130.5 88.55V92.65H132.5V88.55H130.5ZM130.5 96.75V100.85H132.5V96.75H130.5ZM130.5 104.95V109.05H132.5V104.95H130.5ZM130.5 113.15V117.25H132.5V113.15H130.5ZM130.5 121.35V125.45H132.5V121.35H130.5ZM130.5 129.55V133.65H132.5V129.55H130.5ZM130.5 137.75V141.85H132.5V137.75H130.5ZM130.5 145.95V148H132.5V145.95H130.5ZM131.5 149H133.35V147H131.5V149ZM137.05 149H140.75V147H137.05V149ZM144.45 149H148.15V147H144.45V149ZM151.85 149H153.7V147H151.85V149ZM152.7 148V149.875H154.7V148H152.7ZM152.7 153.625V157.375H154.7V153.625H152.7ZM152.7 161.125V164.875H154.7V161.125H152.7ZM152.7 168.625V172.375H154.7V168.625H152.7ZM152.7 176.125V179.875H154.7V176.125H152.7ZM152.7 183.625V185.5H154.7V183.625H152.7ZM153.7 184.5H151.85V186.5H153.7V184.5ZM148.15 184.5H144.45V186.5H148.15V184.5ZM140.75 184.5H137.05V186.5H140.75V184.5ZM133.35 184.5H131.5V186.5H133.35V184.5ZM130.5 185.5V187.438H132.5V185.5H130.5ZM130.5 191.312V195.188H132.5V191.312H130.5ZM130.5 199.062V202.938H132.5V199.062H130.5ZM130.5 206.812V210.688H132.5V206.812H130.5ZM130.5 214.562V218.438H132.5V214.562H130.5ZM130.5 222.312V226.188H132.5V222.312H130.5ZM130.5 230.062V232H132.5V230.062H130.5ZM131.5 231H129.505V233H131.5V231ZM125.515 231H121.525V233H125.515V231ZM117.535 231H113.545V233H117.535V231ZM109.555 231H105.565V233H109.555V231ZM101.575 231H97.585V233H101.575V231ZM93.595 231H91.6V233H93.595V231ZM92.6 232V230.062H90.6V232H92.6ZM92.6 226.188V222.312H90.6V226.188H92.6ZM92.6 218.438V214.562H90.6V218.438H92.6ZM92.6 210.688V206.812H90.6V210.688H92.6ZM92.6 202.938V199.062H90.6V202.938H92.6ZM92.6 195.188V191.312H90.6V195.188H92.6ZM92.6 187.438V185.5H90.6V187.438H92.6ZM91.6 147H89.53V149H91.6V147ZM85.39 147H81.25V149H85.39V147ZM77.11 147H72.97V149H77.11V147ZM68.83 147H64.69V149H68.83V147ZM60.55 147H56.41V149H60.55V147ZM52.27 147H50.2V149H52.27V147ZM51.0804 148.474L52.0366 146.699L50.2759 145.751L49.3196 147.526L51.0804 148.474ZM53.9491 143.149L55.8616 139.599L54.1009 138.651L52.1884 142.201L53.9491 143.149ZM57.7741 136.049L59.6866 132.499L57.9259 131.551L56.0134 135.101L57.7741 136.049ZM61.5991 128.949L63.5116 125.399L61.7509 124.451L59.8384 128.001L61.5991 128.949ZM65.4241 121.849L67.3366 118.299L65.5759 117.351L63.6634 120.901L65.4241 121.849ZM69.2491 114.749L71.1616 111.199L69.4009 110.251L67.4884 113.801L69.2491 114.749ZM73.0741 107.649L74.9866 104.099L73.2259 103.151L71.3134 106.701L73.0741 107.649ZM76.8991 100.549L78.8116 96.9993L77.0509 96.0507L75.1384 99.6007L76.8991 100.549ZM80.7241 93.4493L82.6366 89.8993L80.8759 88.9507L78.9634 92.5007L80.7241 93.4493ZM84.5491 86.3493L86.4616 82.7993L84.7009 81.8507L82.7884 85.4007L84.5491 86.3493ZM88.3741 79.2493L90.2866 75.6993L88.5259 74.7507L86.6134 78.3007L88.3741 79.2493ZM92.1991 72.1493L94.1116 68.5993L92.3509 67.6507L90.4384 71.2007L92.1991 72.1493ZM96.0241 65.0493L96.9804 63.2743L95.2196 62.3257L94.2634 64.1007L96.0241 65.0493ZM95.1039 62.7121L94.9164 64.8371L96.9086 65.0129L97.0961 62.8879L95.1039 62.7121ZM94.5414 69.0871L94.1664 73.3371L96.1586 73.5129L96.5336 69.2629L94.5414 69.0871ZM93.7914 77.5871L93.4164 81.8371L95.4086 82.0129L95.7836 77.7629L93.7914 77.5871ZM93.0414 86.0871L92.6664 90.3371L94.6586 90.5129L95.0336 86.2629L93.0414 86.0871ZM92.2914 94.5871L91.9164 98.8371L93.9086 99.0129L94.2836 94.7629L92.2914 94.5871ZM91.5414 103.087L91.1664 107.337L93.1586 107.513L93.5336 103.263L91.5414 103.087ZM90.7914 111.587L90.6039 113.712L92.5961 113.888L92.7836 111.763L90.7914 111.587ZM90.6 113.8V115.938H92.6V113.8H90.6ZM90.6 120.212V124.487H92.6V120.212H90.6ZM90.6 128.762V133.037H92.6V128.762H90.6ZM90.6 137.312V141.587H92.6V137.312H90.6ZM90.6 145.863V148H92.6V145.863H90.6ZM255.515 232.1C254.837 232.1 254.165 232.095 253.498 232.086L253.485 233.086C254.156 233.095 254.833 233.1 255.515 233.1V232.1ZM249.504 231.975C248.152 231.917 246.822 231.839 245.516 231.741L245.441 232.738C246.759 232.837 248.099 232.916 249.461 232.974L249.504 231.975ZM241.54 231.372C240.195 231.223 238.875 231.05 237.582 230.854L237.432 231.843C238.739 232.041 240.072 232.215 241.429 232.366L241.54 231.372ZM233.652 230.171C232.326 229.91 231.03 229.622 229.763 229.306L229.521 230.277C230.805 230.596 232.117 230.888 233.459 231.152L233.652 230.171ZM225.928 228.242C224.641 227.846 223.387 227.419 222.166 226.96L221.815 227.896C223.055 228.362 224.328 228.796 225.634 229.198L225.928 228.242ZM218.485 225.438C217.262 224.882 216.076 224.291 214.926 223.665L214.448 224.543C215.619 225.181 216.827 225.783 218.072 226.348L218.485 225.438ZM211.519 221.631C210.402 220.904 209.324 220.137 208.287 219.33L207.673 220.12C208.733 220.943 209.833 221.726 210.973 222.469L211.519 221.631ZM205.26 216.764C204.289 215.867 203.359 214.928 202.468 213.948L201.728 214.62C202.638 215.622 203.589 216.581 204.581 217.499L205.26 216.764ZM199.928 210.9C199.131 209.858 198.373 208.775 197.653 207.651L196.811 208.191C197.546 209.337 198.32 210.442 199.133 211.507L199.928 210.9ZM195.643 204.226C195.024 203.072 194.44 201.881 193.891 200.652L192.978 201.06C193.537 202.31 194.131 203.523 194.762 204.698L195.643 204.226ZM192.392 196.972C191.94 195.75 191.518 194.493 191.127 193.202L190.17 193.493C190.567 194.802 190.995 196.077 191.454 197.319L192.392 196.972ZM190.075 189.361C189.764 188.094 189.479 186.796 189.221 185.467L188.24 185.658C188.501 187.002 188.789 188.316 189.104 189.6L190.075 189.361ZM188.546 181.535C188.353 180.242 188.182 178.922 188.034 177.576L187.04 177.685C187.19 179.044 187.362 180.377 187.557 181.683L188.546 181.535ZM187.67 173.6C187.573 172.294 187.496 170.965 187.439 169.612L186.44 169.654C186.497 171.017 186.575 172.357 186.673 173.674L187.67 173.6ZM187.328 165.618C187.319 164.951 187.315 164.278 187.315 163.6H186.315C186.315 164.282 186.319 164.96 186.328 165.631L187.328 165.618ZM187.315 163.6V161.656H186.315V163.6H187.315ZM187.315 157.769V153.881H186.315V157.769H187.315ZM187.315 149.994V146.106H186.315V149.994H187.315ZM187.315 142.219V138.331H186.315V142.219H187.315ZM187.315 134.444V130.556H186.315V134.444H187.315ZM187.315 126.669V122.781H186.315V126.669H187.315ZM187.315 118.894V115.006H186.315V118.894H187.315ZM187.315 111.119V107.231H186.315V111.119H187.315ZM187.315 103.344V99.4562H186.315V103.344H187.315ZM187.315 95.5687V91.6813H186.315V95.5687H187.315ZM187.315 87.7938V83.9062H186.315V87.7938H187.315ZM187.315 80.0188V76.1313H186.315V80.0188H187.315ZM187.315 72.2438V70.3H186.315V72.2438H187.315ZM187.315 70.3C187.315 69.6246 187.32 68.9543 187.329 68.2892L186.329 68.275C186.32 68.945 186.315 69.6199 186.315 70.3H187.315ZM187.444 64.3056C187.504 62.9576 187.584 61.6322 187.685 60.329L186.688 60.2518C186.586 61.5663 186.505 62.9028 186.445 64.2614L187.444 64.3056ZM188.064 56.3646C188.217 55.0241 188.394 53.7091 188.594 52.4193L187.606 52.2658C187.404 53.5693 187.225 54.8977 187.07 56.2511L188.064 56.3646ZM189.291 48.5025C189.557 47.1816 189.85 45.8895 190.17 44.6261L189.2 44.3806C188.876 45.6604 188.58 46.9686 188.311 48.3051L189.291 48.5025ZM191.247 40.8048C191.647 39.523 192.078 38.2736 192.539 37.0566L191.604 36.702C191.136 37.9383 190.699 39.2066 190.293 40.5069L191.247 40.8048ZM194.067 33.391C194.623 32.1718 195.214 30.9888 195.84 29.8418L194.962 29.3629C194.325 30.5313 193.723 31.7356 193.157 32.9758L194.067 33.391ZM197.866 26.439C198.59 25.3237 199.351 24.247 200.15 23.2088L199.358 22.5989C198.542 23.6586 197.765 24.7572 197.027 25.8947L197.866 26.439ZM202.694 20.1736C203.583 19.1978 204.512 18.2614 205.481 17.3643L204.801 16.6308C203.812 17.547 202.863 18.5034 201.955 19.4999L202.694 20.1736ZM208.495 14.7973C209.527 13.9898 210.598 13.2203 211.708 12.4885L211.158 11.6537C210.026 12.4 208.933 13.1853 207.879 14.0096L208.495 14.7973ZM215.096 10.4388C216.239 9.80556 217.418 9.20729 218.634 8.64391L218.213 7.73662C216.976 8.30984 215.776 8.91895 214.612 9.56409L215.096 10.4388ZM222.291 7.0964C223.506 6.62888 224.753 6.19238 226.033 5.78689L225.731 4.83358C224.432 5.245 223.166 5.68815 221.932 6.16316L222.291 7.0964ZM229.849 4.69468C231.111 4.37032 232.402 4.07328 233.722 3.80353L233.522 2.82377C232.186 3.09675 230.879 3.39751 229.6 3.72616L229.849 4.69468ZM237.637 3.09705C238.926 2.89392 240.241 2.71469 241.581 2.55932L241.466 1.56597C240.112 1.72285 238.784 1.90392 237.481 2.10924L237.637 3.09705ZM245.545 2.17532C246.847 2.073 248.173 1.99163 249.521 1.93117L249.476 0.932171C248.117 0.993118 246.78 1.07517 245.466 1.17838L245.545 2.17532ZM253.504 1.81428C254.169 1.80475 254.839 1.79998 255.515 1.79998V0.799984C254.835 0.799984 254.16 0.804781 253.49 0.814384L253.504 1.81428ZM255.515 1.79998C256.192 1.79998 256.864 1.80452 257.531 1.8136L257.545 0.813696C256.873 0.804548 256.197 0.799984 255.515 0.799984V1.79998ZM261.526 1.92518C262.878 1.98297 264.207 2.06083 265.514 2.1589L265.589 1.1617C264.271 1.06281 262.931 0.984327 261.569 0.926092L261.526 1.92518ZM269.49 2.52762C270.835 2.67707 272.154 2.84971 273.448 3.04568L273.597 2.05696C272.29 1.85894 270.958 1.6846 269.6 1.53374L269.49 2.52762ZM277.377 3.72875C278.703 3.99013 280 4.27838 281.267 4.59367L281.509 3.62326C280.225 3.30386 278.912 3.01207 277.571 2.74763L277.377 3.72875ZM285.102 5.65805C286.389 6.05423 287.643 6.48139 288.863 6.93973L289.215 6.00356C287.975 5.53787 286.702 5.10422 285.396 4.7023L285.102 5.65805ZM292.545 8.46245C293.768 9.01786 294.954 9.6087 296.103 10.2352L296.582 9.35726C295.411 8.71876 294.203 8.1171 292.958 7.55191L292.545 8.46245ZM299.511 12.2686C300.628 12.9965 301.705 13.7634 302.743 14.5696L303.357 13.7799C302.297 12.9565 301.197 12.1736 300.057 11.4308L299.511 12.2686ZM305.769 17.1356C306.74 18.0335 307.671 18.9722 308.562 19.9522L309.302 19.2796C308.392 18.2782 307.44 17.3189 306.448 16.4014L305.769 17.1356ZM311.102 22.9999C311.898 24.0424 312.656 25.1252 313.377 26.2487L314.218 25.7091C313.484 24.5628 312.71 23.4576 311.897 22.3929L311.102 22.9999ZM315.387 29.6742C316.006 30.8276 316.589 32.0188 317.139 33.2482L318.052 32.8403C317.493 31.5895 316.898 30.3767 316.268 29.2016L315.387 29.6742ZM318.637 36.9279C319.09 38.1504 319.512 39.4069 319.903 40.6976L320.86 40.4073C320.463 39.0981 320.035 37.8227 319.575 36.5809L318.637 36.9279ZM320.954 44.5386C321.265 45.8064 321.55 47.1044 321.809 48.4327L322.79 48.2418C322.529 46.8982 322.241 45.5844 321.926 44.3003L320.954 44.5386ZM322.483 52.3651C322.677 53.6581 322.847 54.9776 322.995 56.3239L323.989 56.2147C323.84 54.856 323.668 53.5235 323.472 52.2171L322.483 52.3651ZM323.36 60.3003C323.457 61.606 323.534 62.9351 323.591 64.2878L324.59 64.2455C324.532 62.8826 324.455 61.5429 324.357 60.2262L323.36 60.3003ZM323.701 68.282C323.71 68.9493 323.715 69.6219 323.715 70.3H324.715C324.715 69.6175 324.71 68.9404 324.701 68.2685L323.701 68.282ZM323.715 70.3V72.2437H324.715V70.3H323.715ZM323.715 76.1312V80.0187H324.715V76.1312H323.715ZM323.715 83.9062V87.7937H324.715V83.9062H323.715ZM323.715 91.6812V95.5687H324.715V91.6812H323.715ZM323.715 99.4562V103.344H324.715V99.4562H323.715ZM323.715 107.231V111.119H324.715V107.231H323.715ZM323.715 115.006V118.894H324.715V115.006H323.715ZM323.715 122.781V126.669H324.715V122.781H323.715ZM323.715 130.556V134.444H324.715V130.556H323.715ZM323.715 138.331V142.219H324.715V138.331H323.715ZM323.715 146.106V149.994H324.715V146.106H323.715ZM323.715 153.881V157.769H324.715V153.881H323.715ZM323.715 161.656V163.6H324.715V161.656H323.715ZM323.715 163.6C323.715 164.278 323.71 164.951 323.701 165.618L324.701 165.631C324.71 164.96 324.715 164.282 324.715 163.6H323.715ZM323.591 169.612C323.534 170.965 323.457 172.294 323.36 173.6L324.357 173.674C324.455 172.357 324.532 171.017 324.59 169.654L323.591 169.612ZM322.995 177.576C322.847 178.922 322.677 180.242 322.483 181.535L323.472 181.683C323.668 180.377 323.84 179.044 323.989 177.685L322.995 177.576ZM321.809 185.467C321.55 186.796 321.265 188.094 320.954 189.361L321.926 189.6C322.241 188.316 322.529 187.002 322.79 185.658L321.809 185.467ZM319.903 193.202C319.512 194.493 319.09 195.75 318.637 196.972L319.575 197.319C320.035 196.077 320.463 194.802 320.86 193.493L319.903 193.202ZM317.139 200.652C316.589 201.881 316.006 203.072 315.387 204.226L316.268 204.698C316.898 203.523 317.493 202.31 318.052 201.06L317.139 200.652ZM313.377 207.651C312.656 208.775 311.898 209.858 311.102 210.9L311.897 211.507C312.71 210.442 313.484 209.337 314.218 208.191L313.377 207.651ZM308.562 213.948C307.671 214.928 306.74 215.867 305.769 216.764L306.448 217.499C307.44 216.581 308.392 215.622 309.302 214.62L308.562 213.948ZM302.743 219.33C301.705 220.137 300.628 220.904 299.511 221.631L300.057 222.469C301.197 221.726 302.297 220.943 303.357 220.12L302.743 219.33ZM296.103 223.665C294.954 224.291 293.768 224.882 292.545 225.438L292.958 226.348C294.203 225.783 295.411 225.181 296.582 224.543L296.103 223.665ZM288.863 226.96C287.643 227.419 286.389 227.846 285.102 228.242L285.396 229.198C286.702 228.796 287.975 228.362 289.215 227.896L288.863 226.96ZM281.267 229.306C280 229.622 278.703 229.91 277.377 230.171L277.571 231.152C278.912 230.888 280.225 230.596 281.509 230.277L281.267 229.306ZM273.448 230.854C272.154 231.05 270.835 231.223 269.49 231.372L269.6 232.366C270.958 232.215 272.291 232.041 273.597 231.843L273.448 230.854ZM265.514 231.741C264.207 231.839 262.878 231.917 261.526 231.975L261.569 232.974C262.931 232.916 264.271 232.837 265.589 232.738L265.514 231.741ZM257.531 232.086C256.864 232.095 256.192 232.1 255.515 232.1V233.1C256.197 233.1 256.873 233.095 257.545 233.086L257.531 232.086ZM255.515 195.5C254.794 195.5 254.092 195.486 253.408 195.458L253.367 196.457C254.065 196.486 254.781 196.5 255.515 196.5V195.5ZM249.221 195.081C247.765 194.872 246.407 194.584 245.141 194.22L244.865 195.182C246.179 195.559 247.582 195.855 249.079 196.071L249.221 195.081ZM241.258 192.735C239.976 192.102 238.816 191.364 237.767 190.524L237.142 191.305C238.249 192.192 239.471 192.968 240.815 193.632L241.258 192.735ZM234.859 187.595C234.019 186.534 233.28 185.369 232.632 184.101L231.742 184.556C232.417 185.878 233.191 187.099 234.075 188.216L234.859 187.595ZM231.041 180.248C230.621 178.973 230.265 177.622 229.967 176.195L228.988 176.4C229.293 177.859 229.658 179.247 230.092 180.561L231.041 180.248ZM229.287 172.047C229.12 170.7 228.992 169.299 228.901 167.844L227.903 167.908C227.996 169.379 228.125 170.801 228.295 172.17L229.287 172.047ZM228.734 163.617C228.721 162.922 228.715 162.216 228.715 161.5H227.715C227.715 162.222 227.721 162.933 227.734 163.635L228.734 163.617ZM228.715 161.5V159.475H227.715V161.5H228.715ZM228.715 155.425V151.375H227.715V155.425H228.715ZM228.715 147.325V143.275H227.715V147.325H228.715ZM228.715 139.225V135.175H227.715V139.225H228.715ZM228.715 131.125V127.075H227.715V131.125H228.715ZM228.715 123.025V118.975H227.715V123.025H228.715ZM228.715 114.925V110.875H227.715V114.925H228.715ZM228.715 106.825V102.775H227.715V106.825H228.715ZM228.715 98.725V94.675H227.715V98.725H228.715ZM228.715 90.625V86.575H227.715V90.625H228.715ZM228.715 82.525V78.475H227.715V82.525H228.715ZM228.715 74.425V72.4H227.715V74.425H228.715ZM228.715 72.4C228.715 71.6841 228.721 70.9784 228.734 70.2829L227.734 70.2648C227.721 70.9666 227.715 71.6784 227.715 72.4H228.715ZM228.901 66.0555C228.992 64.6014 229.12 63.2002 229.287 61.8529L228.295 61.7297C228.125 63.0992 227.996 64.5206 227.903 65.9925L228.901 66.0555ZM229.967 57.7046C230.265 56.278 230.621 54.9268 231.041 53.6523L230.092 53.3391C229.658 54.6534 229.293 56.0414 228.988 57.5004L229.967 57.7046ZM232.632 49.7987C233.28 48.5308 234.019 47.3658 234.859 46.3053L234.075 45.6844C233.191 46.8008 232.417 48.0221 231.742 49.344L232.632 49.7987ZM237.767 43.3757C238.816 42.5356 239.976 41.7975 241.258 41.1647L240.815 40.268C239.471 40.9318 238.249 41.7084 237.142 42.5952L237.767 43.3757ZM245.141 39.6796C246.407 39.3163 247.765 39.0285 249.221 38.8185L249.079 37.8287C247.582 38.0446 246.179 38.3414 244.865 38.7184L245.141 39.6796ZM253.408 38.4423C254.092 38.4141 254.794 38.4 255.515 38.4V37.4C254.781 37.4 254.065 37.4144 253.367 37.4431L253.408 38.4423ZM255.515 38.4C256.235 38.4 256.938 38.4141 257.622 38.4423L257.663 37.4431C256.964 37.4144 256.248 37.4 255.515 37.4V38.4ZM261.808 38.8185C263.265 39.0285 264.623 39.3163 265.889 39.6796L266.165 38.7184C264.851 38.3414 263.448 38.0446 261.951 37.8287L261.808 38.8185ZM269.772 41.1647C271.054 41.7975 272.214 42.5356 273.263 43.3757L273.888 42.5952C272.781 41.7084 271.559 40.9318 270.215 40.268L269.772 41.1647ZM276.171 46.3053C277.011 47.3658 277.75 48.5308 278.397 49.7987L279.288 49.344C278.613 48.0221 277.839 46.8008 276.955 45.6844L276.171 46.3053ZM279.988 53.6523C280.409 54.9268 280.765 56.278 281.063 57.7046L282.042 57.5004C281.737 56.0414 281.372 54.6534 280.938 53.3391L279.988 53.6523ZM281.742 61.8529C281.91 63.2002 282.037 64.6014 282.129 66.0555L283.127 65.9925C283.034 64.5206 282.905 63.0992 282.735 61.7297L281.742 61.8529ZM282.296 70.2829C282.309 70.9784 282.315 71.6841 282.315 72.4H283.315C283.315 71.6784 283.309 70.9666 283.296 70.2648L282.296 70.2829ZM282.315 72.4V74.425H283.315V72.4H282.315ZM282.315 78.475V82.525H283.315V78.475H282.315ZM282.315 86.575V90.625H283.315V86.575H282.315ZM282.315 94.675V98.725H283.315V94.675H282.315ZM282.315 102.775V106.825H283.315V102.775H282.315ZM282.315 110.875V114.925H283.315V110.875H282.315ZM282.315 118.975V123.025H283.315V118.975H282.315ZM282.315 127.075V131.125H283.315V127.075H282.315ZM282.315 135.175V139.225H283.315V135.175H282.315ZM282.315 143.275V147.325H283.315V143.275H282.315ZM282.315 151.375V155.425H283.315V151.375H282.315ZM282.315 159.475V161.5H283.315V159.475H282.315ZM282.315 161.5C282.315 162.216 282.309 162.922 282.296 163.617L283.296 163.635C283.309 162.933 283.315 162.222 283.315 161.5H282.315ZM282.129 167.844C282.037 169.299 281.91 170.7 281.742 172.047L282.735 172.17C282.905 170.801 283.034 169.379 283.127 167.908L282.129 167.844ZM281.063 176.195C280.765 177.622 280.409 178.973 279.988 180.248L280.938 180.561C281.372 179.247 281.737 177.859 282.042 176.4L281.063 176.195ZM278.397 184.101C277.75 185.369 277.011 186.534 276.171 187.595L276.955 188.216C277.839 187.099 278.613 185.878 279.288 184.556L278.397 184.101ZM273.263 190.524C272.214 191.364 271.054 192.102 269.772 192.735L270.215 193.632C271.559 192.968 272.781 192.192 273.888 191.305L273.263 190.524ZM265.889 194.22C264.623 194.584 263.265 194.872 261.808 195.081L261.951 196.071C263.448 195.855 264.851 195.559 266.165 195.182L265.889 194.22ZM257.622 195.458C256.938 195.486 256.235 195.5 255.515 195.5V196.5C256.248 196.5 256.964 196.486 257.663 196.457L257.622 195.458ZM255.515 231.6C254.84 231.6 254.17 231.595 253.505 231.586L253.478 233.586C254.152 233.595 254.831 233.6 255.515 233.6V231.6ZM249.525 231.475C248.178 231.418 246.854 231.34 245.553 231.242L245.404 233.237C246.727 233.336 248.072 233.415 249.44 233.473L249.525 231.475ZM241.595 230.875C240.256 230.727 238.944 230.555 237.657 230.36L237.357 232.337C238.671 232.536 240.01 232.712 241.374 232.863L241.595 230.875ZM233.749 229.681C232.431 229.421 231.142 229.134 229.883 228.821L229.4 230.762C230.692 231.083 232.013 231.377 233.362 231.643L233.749 229.681ZM226.075 227.764C224.797 227.371 223.553 226.947 222.342 226.492L221.639 228.365C222.889 228.834 224.172 229.271 225.487 229.676L226.075 227.764ZM218.692 224.982C217.479 224.432 216.304 223.846 215.166 223.226L214.208 224.982C215.39 225.626 216.609 226.233 217.865 226.803L218.692 224.982ZM211.792 221.213C210.686 220.492 209.62 219.733 208.593 218.936L207.366 220.515C208.437 221.347 209.548 222.138 210.699 222.888L211.792 221.213ZM205.6 216.397C204.64 215.509 203.719 214.581 202.838 213.611L201.358 214.957C202.278 215.969 203.239 216.938 204.242 217.866L205.6 216.397ZM200.325 210.597C199.537 209.565 198.787 208.494 198.074 207.381L196.39 208.461C197.132 209.618 197.914 210.735 198.736 211.811L200.325 210.597ZM196.083 203.989C195.471 202.847 194.892 201.667 194.347 200.448L192.521 201.264C193.085 202.525 193.685 203.749 194.321 204.935L196.083 203.989ZM192.861 196.799C192.413 195.586 191.994 194.339 191.605 193.057L189.691 193.638C190.091 194.956 190.523 196.241 190.986 197.493L192.861 196.799ZM190.561 189.242C190.252 187.983 189.969 186.692 189.712 185.372L187.749 185.754C188.012 187.105 188.301 188.427 188.619 189.719L190.561 189.242ZM189.041 181.461C188.848 180.175 188.679 178.862 188.531 177.522L186.543 177.74C186.693 179.105 186.866 180.444 187.063 181.757L189.041 181.461ZM188.169 173.563C188.072 172.262 187.995 170.939 187.938 169.591L185.94 169.676C185.998 171.044 186.076 172.389 186.174 173.711L188.169 173.563ZM187.828 165.611C187.819 164.946 187.815 164.276 187.815 163.6H185.815C185.815 164.285 185.819 164.964 185.828 165.638L187.828 165.611ZM187.815 163.6V161.656H185.815V163.6H187.815ZM187.815 157.769V153.881H185.815V157.769H187.815ZM187.815 149.994V146.106H185.815V149.994H187.815ZM187.815 142.219V138.331H185.815V142.219H187.815ZM187.815 134.444V130.556H185.815V134.444H187.815ZM187.815 126.669V122.781H185.815V126.669H187.815ZM187.815 118.894V115.006H185.815V118.894H187.815ZM187.815 111.119V107.231H185.815V111.119H187.815ZM187.815 103.344V99.4562H185.815V103.344H187.815ZM187.815 95.5687V91.6813H185.815V95.5687H187.815ZM187.815 87.7938V83.9062H185.815V87.7938H187.815ZM187.815 80.0188V76.1313H185.815V80.0188H187.815ZM187.815 72.2438V70.3H185.815V72.2438H187.815ZM187.815 70.3C187.815 69.6269 187.82 68.959 187.829 68.2962L185.829 68.268C185.82 68.9403 185.815 69.6176 185.815 70.3H187.815ZM187.944 64.3277C188.003 62.9851 188.083 61.6651 188.184 60.3676L186.19 60.2132C186.087 61.5333 186.006 62.8754 185.946 64.2393L187.944 64.3277ZM188.561 56.4214C188.713 55.0874 188.889 53.779 189.088 52.4961L187.112 52.1891C186.908 53.4994 186.729 54.8344 186.574 56.1943L188.561 56.4214ZM189.781 48.6012C190.046 47.2881 190.337 46.004 190.655 44.7488L188.716 44.2578C188.39 45.5459 188.091 46.8621 187.82 48.2064L189.781 48.6012ZM191.725 40.9538C192.122 39.6811 192.549 38.4412 193.007 37.2338L191.137 36.5248C190.665 37.7707 190.224 39.0484 189.815 40.358L191.725 40.9538ZM194.522 33.5985C195.073 32.3899 195.659 31.2175 196.279 30.0812L194.523 29.1235C193.88 30.3025 193.273 31.5175 192.702 32.7682L194.522 33.5985ZM198.286 26.7112C199.002 25.6069 199.756 24.5412 200.547 23.5138L198.962 22.2939C198.138 23.3644 197.353 24.4739 196.608 25.6225L198.286 26.7112ZM203.063 20.5105C203.943 19.5451 204.862 18.6187 205.82 17.7311L204.461 16.264C203.462 17.1898 202.503 18.1561 201.585 19.163L203.063 20.5105ZM208.803 15.1911C209.825 14.3921 210.885 13.6304 211.983 12.906L210.882 11.2362C209.739 11.9899 208.636 12.7831 207.571 13.6158L208.803 15.1911ZM215.339 10.8761C216.471 10.2489 217.639 9.65601 218.844 9.09756L218.003 7.28297C216.755 7.86111 215.544 8.47565 214.369 9.12675L215.339 10.8761ZM222.471 7.56302C223.675 7.09924 224.913 6.66608 226.184 6.26354L225.58 4.35693C224.272 4.7713 222.996 5.21778 221.752 5.69655L222.471 7.56302ZM229.974 5.17893C231.227 4.85673 232.51 4.56155 233.822 4.2934L233.422 2.33389C232.078 2.60848 230.763 2.91111 229.476 3.2419L229.974 5.17893ZM237.715 3.59095C238.997 3.38892 240.305 3.2106 241.638 3.056L241.408 1.0693C240.048 1.22694 238.713 1.40891 237.403 1.61534L237.715 3.59095ZM245.584 2.67378C246.881 2.57192 248.2 2.49088 249.543 2.43066L249.453 0.432673C248.089 0.493862 246.747 0.576252 245.427 0.67992L245.584 2.67378ZM253.511 2.31423C254.174 2.30473 254.842 2.29998 255.515 2.29998V0.299984C254.832 0.299984 254.155 0.304798 253.482 0.314436L253.511 2.31423ZM255.515 2.29998C256.19 2.29998 256.86 2.3045 257.525 2.31356L257.552 0.313742C256.878 0.304564 256.199 0.299984 255.515 0.299984V2.29998ZM261.505 2.42472C262.852 2.4823 264.175 2.55985 265.476 2.65749L265.626 0.663103C264.303 0.563795 262.958 0.485004 261.59 0.42655L261.505 2.42472ZM269.435 3.02456C270.774 3.17331 272.086 3.34509 273.373 3.54004L273.672 1.56261C272.359 1.36355 271.02 1.18836 269.656 1.0368L269.435 3.02456ZM277.281 4.21931C278.599 4.47916 279.887 4.76564 281.146 5.07888L281.629 3.13805C280.337 2.8166 279.017 2.52304 277.667 2.25706L277.281 4.21931ZM284.955 6.13593C286.232 6.52924 287.477 6.95314 288.688 7.40782L289.391 5.53547C288.141 5.06611 286.858 4.62922 285.543 4.22443L284.955 6.13593ZM292.338 8.91772C293.551 9.46825 294.726 10.0537 295.864 10.6742L296.821 8.91827C295.639 8.27378 294.42 7.66671 293.165 7.09664L292.338 8.91772ZM299.238 12.6875C300.344 13.4079 301.41 14.1668 302.436 14.9645L303.663 13.3851C302.592 12.553 301.481 11.7621 300.33 11.0119L299.238 12.6875ZM305.43 17.5027C306.39 18.3907 307.311 19.3192 308.192 20.2885L309.672 18.9433C308.752 17.9312 307.79 16.9616 306.788 16.0344L305.43 17.5027ZM310.705 23.3034C311.492 24.3348 312.243 25.4064 312.956 26.5185L314.639 25.4393C313.897 24.2817 313.116 23.1651 312.294 22.0895L310.705 23.3034ZM314.946 29.9106C315.559 31.053 316.138 32.2334 316.682 33.4522L318.508 32.6363C317.945 31.3749 317.345 30.1512 316.709 28.9652L314.946 29.9106ZM318.168 37.1014C318.617 38.3142 319.036 39.5612 319.425 40.8428L321.339 40.2621C320.939 38.9437 320.507 37.6589 320.044 36.4074L318.168 37.1014ZM320.469 44.6578C320.778 45.9175 321.061 47.2075 321.318 48.5282L323.281 48.1463C323.018 46.795 322.728 45.4734 322.411 44.1811L320.469 44.6578ZM321.989 52.439C322.181 53.7254 322.351 55.0384 322.498 56.3784L324.486 56.1602C324.336 54.7951 324.163 53.4561 323.967 52.1431L321.989 52.439ZM322.861 60.3373C322.958 61.6375 323.034 62.9613 323.091 64.3089L325.09 64.2244C325.032 62.8564 324.954 61.5113 324.856 60.1892L322.861 60.3373ZM323.201 68.2888C323.21 68.9537 323.215 69.6241 323.215 70.3H325.215C325.215 69.6153 325.21 68.9359 325.201 68.2618L323.201 68.2888ZM323.215 70.3V72.2437H325.215V70.3H323.215ZM323.215 76.1312V80.0187H325.215V76.1312H323.215ZM323.215 83.9062V87.7937H325.215V83.9062H323.215ZM323.215 91.6812V95.5687H325.215V91.6812H323.215ZM323.215 99.4562V103.344H325.215V99.4562H323.215ZM323.215 107.231V111.119H325.215V107.231H323.215ZM323.215 115.006V118.894H325.215V115.006H323.215ZM323.215 122.781V126.669H325.215V122.781H323.215ZM323.215 130.556V134.444H325.215V130.556H323.215ZM323.215 138.331V142.219H325.215V138.331H323.215ZM323.215 146.106V149.994H325.215V146.106H323.215ZM323.215 153.881V157.769H325.215V153.881H323.215ZM323.215 161.656V163.6H325.215V161.656H323.215ZM323.215 163.6C323.215 164.276 323.21 164.946 323.201 165.611L325.201 165.638C325.21 164.964 325.215 164.285 325.215 163.6H323.215ZM323.091 169.591C323.034 170.939 322.958 172.262 322.861 173.563L324.856 173.711C324.954 172.389 325.032 171.044 325.09 169.676L323.091 169.591ZM322.498 177.522C322.351 178.862 322.181 180.175 321.989 181.461L323.967 181.757C324.163 180.444 324.336 179.105 324.486 177.74L322.498 177.522ZM321.318 185.372C321.061 186.692 320.778 187.983 320.469 189.242L322.411 189.719C322.728 188.427 323.018 187.105 323.281 185.754L321.318 185.372ZM319.425 193.057C319.036 194.339 318.617 195.586 318.168 196.799L320.044 197.493C320.507 196.241 320.939 194.956 321.339 193.638L319.425 193.057ZM316.682 200.448C316.138 201.667 315.559 202.847 314.946 203.989L316.709 204.935C317.345 203.749 317.945 202.525 318.508 201.264L316.682 200.448ZM312.956 207.381C312.243 208.494 311.492 209.565 310.705 210.597L312.294 211.811C313.116 210.735 313.897 209.618 314.639 208.461L312.956 207.381ZM308.192 213.611C307.311 214.581 306.39 215.509 305.43 216.397L306.788 217.866C307.79 216.938 308.752 215.969 309.672 214.957L308.192 213.611ZM302.436 218.936C301.41 219.733 300.344 220.492 299.238 221.213L300.33 222.888C301.481 222.138 302.592 221.347 303.663 220.515L302.436 218.936ZM295.864 223.226C294.726 223.846 293.551 224.432 292.338 224.982L293.165 226.803C294.42 226.233 295.639 225.626 296.821 224.982L295.864 223.226ZM288.688 226.492C287.477 226.947 286.232 227.371 284.955 227.764L285.543 229.676C286.858 229.271 288.141 228.834 289.391 228.365L288.688 226.492ZM281.146 228.821C279.887 229.134 278.599 229.421 277.281 229.681L277.667 231.643C279.017 231.377 280.337 231.083 281.629 230.762L281.146 228.821ZM273.373 230.36C272.086 230.555 270.774 230.727 269.435 230.875L269.656 232.863C271.02 232.712 272.359 232.536 273.672 232.337L273.373 230.36ZM265.476 231.242C264.175 231.34 262.852 231.418 261.505 231.475L261.59 233.473C262.958 233.415 264.303 233.336 265.626 233.237L265.476 231.242ZM257.525 231.586C256.86 231.595 256.19 231.6 255.515 231.6V233.6C256.199 233.6 256.878 233.595 257.552 233.586L257.525 231.586ZM255.515 195C254.801 195 254.106 194.986 253.428 194.958L253.346 196.956C254.052 196.985 254.775 197 255.515 197V195ZM249.293 194.587C247.857 194.38 246.521 194.096 245.279 193.74L244.727 195.662C246.065 196.046 247.49 196.347 249.007 196.566L249.293 194.587ZM241.479 192.287C240.229 191.67 239.099 190.951 238.08 190.134L236.829 191.695C237.966 192.605 239.218 193.401 240.594 194.08L241.479 192.287ZM235.251 187.284C234.433 186.252 233.711 185.115 233.078 183.874L231.296 184.783C231.985 186.132 232.777 187.382 233.683 188.526L235.251 187.284ZM231.516 180.091C231.102 178.837 230.751 177.504 230.457 176.093L228.499 176.502C228.806 177.977 229.177 179.383 229.617 180.717L231.516 180.091ZM229.784 171.985C229.618 170.649 229.491 169.258 229.4 167.813L227.404 167.939C227.497 169.42 227.627 170.851 227.799 172.232L229.784 171.985ZM229.233 163.608C229.221 162.916 229.215 162.213 229.215 161.5H227.215C227.215 162.224 227.221 162.939 227.234 163.644L229.233 163.608ZM229.215 161.5V159.475H227.215V161.5H229.215ZM229.215 155.425V151.375H227.215V155.425H229.215ZM229.215 147.325V143.275H227.215V147.325H229.215ZM229.215 139.225V135.175H227.215V139.225H229.215ZM229.215 131.125V127.075H227.215V131.125H229.215ZM229.215 123.025V118.975H227.215V123.025H229.215ZM229.215 114.925V110.875H227.215V114.925H229.215ZM229.215 106.825V102.775H227.215V106.825H229.215ZM229.215 98.725V94.675H227.215V98.725H229.215ZM229.215 90.625V86.575H227.215V90.625H229.215ZM229.215 82.525V78.475H227.215V82.525H229.215ZM229.215 74.425V72.4H227.215V74.425H229.215ZM229.215 72.4C229.215 71.6869 229.221 70.9842 229.233 70.292L227.234 70.2558C227.221 70.9608 227.215 71.6756 227.215 72.4H229.215ZM229.4 66.087C229.491 64.6417 229.618 63.2506 229.784 61.9145L227.799 61.6681C227.627 63.0487 227.497 64.4803 227.404 65.961L229.4 66.087ZM230.457 57.8067C230.751 56.3962 231.102 55.0634 231.516 53.809L229.617 53.1825C229.177 54.5168 228.806 55.9231 228.499 57.3982L230.457 57.8067ZM233.078 50.0261C233.711 48.7851 234.433 47.6483 235.251 46.6158L233.683 45.374C232.777 46.5182 231.985 47.7678 231.296 49.1166L233.078 50.0261ZM238.08 43.766C239.099 42.9492 240.229 42.2304 241.479 41.613L240.594 39.8197C239.218 40.4989 237.966 41.2947 236.829 42.2049L238.08 43.766ZM245.279 40.1602C246.521 39.8037 247.857 39.5204 249.293 39.3134L249.007 37.3339C247.49 37.5526 246.065 37.854 244.727 38.2378L245.279 40.1602ZM253.428 38.9419C254.106 38.914 254.801 38.9 255.515 38.9V36.9C254.775 36.9 254.052 36.9145 253.346 36.9435L253.428 38.9419ZM255.515 38.9C256.229 38.9 256.924 38.914 257.601 38.9419L257.683 36.9435C256.978 36.9145 256.255 36.9 255.515 36.9V38.9ZM261.737 39.3134C263.173 39.5204 264.509 39.8037 265.751 40.1602L266.303 38.2378C264.965 37.854 263.54 37.5526 262.022 37.3339L261.737 39.3134ZM269.551 41.613C270.801 42.2304 271.93 42.9492 272.95 43.766L274.2 42.2049C273.064 41.2947 271.812 40.4989 270.436 39.8197L269.551 41.613ZM275.779 46.6157C276.597 47.6483 277.318 48.7851 277.952 50.0261L279.733 49.1166C279.045 47.7678 278.253 46.5182 277.346 45.374L275.779 46.6157ZM279.514 53.809C279.927 55.0634 280.279 56.3962 280.573 57.8067L282.531 57.3982C282.223 55.9231 281.853 54.5168 281.413 53.1825L279.514 53.809ZM281.246 61.9145C281.412 63.2506 281.539 64.6417 281.63 66.087L283.626 65.961C283.533 64.4803 283.402 63.0487 283.231 61.6681L281.246 61.9145ZM281.796 70.292C281.809 70.9842 281.815 71.6869 281.815 72.4H283.815C283.815 71.6756 283.809 70.9608 283.796 70.2558L281.796 70.292ZM281.815 72.4V74.425H283.815V72.4H281.815ZM281.815 78.475V82.525H283.815V78.475H281.815ZM281.815 86.575V90.625H283.815V86.575H281.815ZM281.815 94.675V98.725H283.815V94.675H281.815ZM281.815 102.775V106.825H283.815V102.775H281.815ZM281.815 110.875V114.925H283.815V110.875H281.815ZM281.815 118.975V123.025H283.815V118.975H281.815ZM281.815 127.075V131.125H283.815V127.075H281.815ZM281.815 135.175V139.225H283.815V135.175H281.815ZM281.815 143.275V147.325H283.815V143.275H281.815ZM281.815 151.375V155.425H283.815V151.375H281.815ZM281.815 159.475V161.5H283.815V159.475H281.815ZM281.815 161.5C281.815 162.213 281.809 162.916 281.796 163.608L283.796 163.644C283.809 162.939 283.815 162.224 283.815 161.5H281.815ZM281.63 167.813C281.539 169.258 281.412 170.649 281.246 171.985L283.231 172.232C283.402 170.851 283.533 169.42 283.626 167.939L281.63 167.813ZM280.573 176.093C280.279 177.504 279.927 178.837 279.514 180.091L281.413 180.717C281.853 179.383 282.223 177.977 282.531 176.502L280.573 176.093ZM277.952 183.874C277.318 185.115 276.597 186.252 275.779 187.284L277.347 188.526C278.253 187.382 279.045 186.132 279.733 184.783L277.952 183.874ZM272.95 190.134C271.93 190.951 270.801 191.67 269.551 192.287L270.436 194.08C271.812 193.401 273.064 192.605 274.2 191.695L272.95 190.134ZM265.751 193.74C264.509 194.096 263.173 194.38 261.737 194.587L262.022 196.566C263.54 196.347 264.965 196.046 266.303 195.662L265.751 193.74ZM257.601 194.958C256.924 194.986 256.229 195 255.515 195V197C256.255 197 256.978 196.985 257.683 196.956L257.601 194.958ZM429.1 185.5H429.6V185H429.1V185.5ZM429.1 232H428.6V232.5H429.1V232ZM469 232V232.5H469.5V232H469ZM469 185.5V185H468.5V185.5H469ZM491.2 185.5V186H491.7V185.5H491.2ZM491.2 148H491.7V147.5H491.2V148ZM469 148H468.5V148.5H469V148ZM469 0.399996H469.5V-0.100004H469V0.399996ZM429.1 0.399996V-0.100004H428.813L428.668 0.148008L429.1 0.399996ZM337.9 156.7L337.468 156.448L337.377 156.604L337.407 156.782L337.9 156.7ZM342.7 185.5L342.207 185.582L342.276 186H342.7V185.5ZM429.1 148V148.5H429.6V148H429.1ZM387.7 148L387.26 147.763L386.863 148.5H387.7V148ZM433.6 62.8L434.098 62.8439L433.16 62.5629L433.6 62.8ZM429.1 113.8L428.602 113.756L428.6 113.778V113.8H429.1ZM429.1 185H427.136V186H429.1V185ZM423.209 185H419.282V186H423.209V185ZM415.355 185H411.427V186H415.355V185ZM407.5 185H403.573V186H407.5V185ZM399.645 185H395.718V186H399.645V185ZM391.791 185H387.864V186H391.791V185ZM383.936 185H380.009V186H383.936V185ZM376.082 185H372.155V186H376.082V185ZM368.227 185H364.3V186H368.227V185ZM360.373 185H356.445V186H360.373V185ZM352.518 185H348.591V186H352.518V185ZM344.664 185H342.7V186H344.664V185ZM343.193 185.418L342.893 183.618L341.907 183.782L342.207 185.582L343.193 185.418ZM342.293 180.018L341.693 176.418L340.707 176.582L341.307 180.182L342.293 180.018ZM341.093 172.818L340.493 169.218L339.507 169.382L340.107 172.982L341.093 172.818ZM339.893 165.618L339.293 162.018L338.307 162.182L338.907 165.782L339.893 165.618ZM338.693 158.418L338.393 156.618L337.407 156.782L337.707 158.582L338.693 158.418ZM338.332 156.952L339.323 155.253L338.459 154.749L337.468 156.448L338.332 156.952ZM341.306 151.855L343.288 148.457L342.425 147.953L340.442 151.351L341.306 151.855ZM345.271 145.06L347.254 141.662L346.39 141.158L344.407 144.556L345.271 145.06ZM349.236 138.264L351.219 134.866L350.355 134.362L348.372 137.76L349.236 138.264ZM353.201 131.468L355.184 128.07L354.32 127.566L352.338 130.964L353.201 131.468ZM357.167 124.673L359.149 121.275L358.286 120.771L356.303 124.169L357.167 124.673ZM361.132 117.877L363.114 114.479L362.251 113.975L360.268 117.373L361.132 117.877ZM365.097 111.081L367.08 107.684L366.216 107.18L364.233 110.577L365.097 111.081ZM369.062 104.286L371.045 100.888L370.181 100.384L368.199 103.782L369.062 104.286ZM373.027 97.49L375.01 94.0922L374.146 93.5882L372.164 96.9861L373.027 97.49ZM376.993 90.6944L378.975 87.2965L378.112 86.7926L376.129 90.1904L376.993 90.6944ZM380.958 83.8987L382.941 80.5009L382.077 79.9969L380.094 83.3947L380.958 83.8987ZM384.923 77.1031L386.906 73.7052L386.042 73.2012L384.059 76.5991L384.923 77.1031ZM388.888 70.3074L390.871 66.9096L390.007 66.4056L388.025 69.8034L388.888 70.3074ZM392.854 63.5117L394.836 60.1139L393.973 59.6099L391.99 63.0078L392.854 63.5117ZM396.819 56.7161L398.801 53.3183L397.938 52.8143L395.955 56.2121L396.819 56.7161ZM400.784 49.9204L402.767 46.5226L401.903 46.0186L399.92 49.4165L400.784 49.9204ZM404.749 43.1248L406.732 39.727L405.868 39.223L403.886 42.6208L404.749 43.1248ZM408.714 36.3291L410.697 32.9313L409.833 32.4273L407.851 35.8252L408.714 36.3291ZM412.68 29.5335L414.662 26.1357L413.799 25.6317L411.816 29.0295L412.68 29.5335ZM416.645 22.7378L418.628 19.34L417.764 18.836L415.781 22.2339L416.645 22.7378ZM420.61 15.9422L422.593 12.5444L421.729 12.0404L419.746 15.4382L420.61 15.9422ZM424.575 9.14656L426.558 5.74874L425.694 5.24476L423.712 8.64258L424.575 9.14656ZM428.541 2.35091L429.532 0.651983L428.668 0.148008L427.677 1.84694L428.541 2.35091ZM429.1 0.899996H431.095V-0.100004H429.1V0.899996ZM435.085 0.899996H439.075V-0.100004H435.085V0.899996ZM443.065 0.899996H447.055V-0.100004H443.065V0.899996ZM451.045 0.899996H455.035V-0.100004H451.045V0.899996ZM459.025 0.899996H463.015V-0.100004H459.025V0.899996ZM467.005 0.899996H469V-0.100004H467.005V0.899996ZM468.5 0.399996V2.45H469.5V0.399996H468.5ZM468.5 6.55V10.65H469.5V6.55H468.5ZM468.5 14.75V18.85H469.5V14.75H468.5ZM468.5 22.95V27.05H469.5V22.95H468.5ZM468.5 31.15V35.25H469.5V31.15H468.5ZM468.5 39.35V43.45H469.5V39.35H468.5ZM468.5 47.55V51.65H469.5V47.55H468.5ZM468.5 55.75V59.85H469.5V55.75H468.5ZM468.5 63.95V68.05H469.5V63.95H468.5ZM468.5 72.15V76.25H469.5V72.15H468.5ZM468.5 80.35V84.45H469.5V80.35H468.5ZM468.5 88.55V92.65H469.5V88.55H468.5ZM468.5 96.75V100.85H469.5V96.75H468.5ZM468.5 104.95V109.05H469.5V104.95H468.5ZM468.5 113.15V117.25H469.5V113.15H468.5ZM468.5 121.35V125.45H469.5V121.35H468.5ZM468.5 129.55V133.65H469.5V129.55H468.5ZM468.5 137.75V141.85H469.5V137.75H468.5ZM468.5 145.95V148H469.5V145.95H468.5ZM469 148.5H470.85V147.5H469V148.5ZM474.55 148.5H478.25V147.5H474.55V148.5ZM481.95 148.5H485.65V147.5H481.95V148.5ZM489.35 148.5H491.2V147.5H489.35V148.5ZM490.7 148V149.875H491.7V148H490.7ZM490.7 153.625V157.375H491.7V153.625H490.7ZM490.7 161.125V164.875H491.7V161.125H490.7ZM490.7 168.625V172.375H491.7V168.625H490.7ZM490.7 176.125V179.875H491.7V176.125H490.7ZM490.7 183.625V185.5H491.7V183.625H490.7ZM491.2 185H489.35V186H491.2V185ZM485.65 185H481.95V186H485.65V185ZM478.25 185H474.55V186H478.25V185ZM470.85 185H469V186H470.85V185ZM468.5 185.5V187.438H469.5V185.5H468.5ZM468.5 191.312V195.188H469.5V191.312H468.5ZM468.5 199.062V202.938H469.5V199.062H468.5ZM468.5 206.812V210.688H469.5V206.812H468.5ZM468.5 214.562V218.438H469.5V214.562H468.5ZM468.5 222.312V226.188H469.5V222.312H468.5ZM468.5 230.062V232H469.5V230.062H468.5ZM469 231.5H467.005V232.5H469V231.5ZM463.015 231.5H459.025V232.5H463.015V231.5ZM455.035 231.5H451.045V232.5H455.035V231.5ZM447.055 231.5H443.065V232.5H447.055V231.5ZM439.075 231.5H435.085V232.5H439.075V231.5ZM431.095 231.5H429.1V232.5H431.095V231.5ZM429.6 232V230.062H428.6V232H429.6ZM429.6 226.188V222.312H428.6V226.188H429.6ZM429.6 218.438V214.562H428.6V218.438H429.6ZM429.6 210.688V206.812H428.6V210.688H429.6ZM429.6 202.938V199.062H428.6V202.938H429.6ZM429.6 195.188V191.312H428.6V195.188H429.6ZM429.6 187.438V185.5H428.6V187.438H429.6ZM429.1 147.5H427.03V148.5H429.1V147.5ZM422.89 147.5H418.75V148.5H422.89V147.5ZM414.61 147.5H410.47V148.5H414.61V147.5ZM406.33 147.5H402.19V148.5H406.33V147.5ZM398.05 147.5H393.91V148.5H398.05V147.5ZM389.77 147.5H387.7V148.5H389.77V147.5ZM388.14 148.237L389.096 146.462L388.216 145.988L387.26 147.763L388.14 148.237ZM391.009 142.912L392.921 139.362L392.041 138.888L390.129 142.438L391.009 142.912ZM394.834 135.812L396.746 132.262L395.866 131.788L393.954 135.338L394.834 135.812ZM398.659 128.712L400.571 125.162L399.691 124.688L397.779 128.238L398.659 128.712ZM402.484 121.612L404.396 118.062L403.516 117.588L401.604 121.138L402.484 121.612ZM406.309 114.512L408.221 110.962L407.341 110.488L405.429 114.038L406.309 114.512ZM410.134 107.412L412.046 103.862L411.166 103.388L409.254 106.938L410.134 107.412ZM413.959 100.312L415.871 96.7621L414.991 96.2879L413.079 99.8379L413.959 100.312ZM417.784 93.2122L419.696 89.6621L418.816 89.1879L416.904 92.7379L417.784 93.2122ZM421.609 86.1122L423.521 82.5621L422.641 82.0879L420.729 85.6379L421.609 86.1122ZM425.434 79.0122L427.346 75.4622L426.466 74.9879L424.554 78.5379L425.434 79.0122ZM429.259 71.9121L431.171 68.3622L430.291 67.8879L428.379 71.4379L429.259 71.9121ZM433.084 64.8122L434.04 63.0371L433.16 62.5629L432.204 64.3379L433.084 64.8122ZM433.102 62.7561L432.914 64.8811L433.911 64.9689L434.098 62.8439L433.102 62.7561ZM432.539 69.1311L432.164 73.3811L433.161 73.4689L433.536 69.2189L432.539 69.1311ZM431.789 77.6311L431.414 81.8811L432.411 81.9689L432.786 77.7189L431.789 77.6311ZM431.039 86.1311L430.664 90.3811L431.661 90.4689L432.036 86.2189L431.039 86.1311ZM430.289 94.6311L429.914 98.8811L430.911 98.9689L431.286 94.7189L430.289 94.6311ZM429.539 103.131L429.164 107.381L430.161 107.469L430.536 103.219L429.539 103.131ZM428.789 111.631L428.602 113.756L429.598 113.844L429.786 111.719L428.789 111.631ZM428.6 113.8V115.938H429.6V113.8H428.6ZM428.6 120.212V124.487H429.6V120.212H428.6ZM428.6 128.762V133.037H429.6V128.762H428.6ZM428.6 137.312V141.587H429.6V137.312H428.6ZM428.6 145.863V148H429.6V145.863H428.6ZM429.1 185.5H430.1V184.5H429.1V185.5ZM429.1 232H428.1V233H429.1V232ZM469 232V233H470V232H469ZM469 185.5V184.5H468V185.5H469ZM491.2 185.5V186.5H492.2V185.5H491.2ZM491.2 148H492.2V147H491.2V148ZM469 148H468V149H469V148ZM469 0.399996H470V-0.600004H469V0.399996ZM429.1 0.399996V-0.600004H428.526L428.236 -0.103979L429.1 0.399996ZM337.9 156.7L337.036 156.196L336.854 156.508L336.914 156.864L337.9 156.7ZM342.7 185.5L341.714 185.664L341.853 186.5H342.7V185.5ZM429.1 148V149H430.1V148H429.1ZM387.7 148L386.82 147.526L386.025 149H387.7V148ZM433.6 62.8L434.596 62.8879L432.72 62.3257L433.6 62.8ZM429.1 113.8L428.104 113.712L428.1 113.756V113.8H429.1ZM429.1 184.5H427.136V186.5H429.1V184.5ZM423.209 184.5H419.282V186.5H423.209V184.5ZM415.355 184.5H411.427V186.5H415.355V184.5ZM407.5 184.5H403.573V186.5H407.5V184.5ZM399.645 184.5H395.718V186.5H399.645V184.5ZM391.791 184.5H387.864V186.5H391.791V184.5ZM383.936 184.5H380.009V186.5H383.936V184.5ZM376.082 184.5H372.155V186.5H376.082V184.5ZM368.227 184.5H364.3V186.5H368.227V184.5ZM360.373 184.5H356.445V186.5H360.373V184.5ZM352.518 184.5H348.591V186.5H352.518V184.5ZM344.664 184.5H342.7V186.5H344.664V184.5ZM343.686 185.336L343.386 183.536L341.414 183.864L341.714 185.664L343.686 185.336ZM342.786 179.936L342.186 176.336L340.214 176.664L340.814 180.264L342.786 179.936ZM341.586 172.736L340.986 169.136L339.014 169.464L339.614 173.064L341.586 172.736ZM340.386 165.536L339.786 161.936L337.814 162.264L338.414 165.864L340.386 165.536ZM339.186 158.336L338.886 156.536L336.914 156.864L337.214 158.664L339.186 158.336ZM338.764 157.204L339.755 155.505L338.028 154.497L337.036 156.196L338.764 157.204ZM341.738 152.107L343.72 148.709L341.993 147.701L340.01 151.099L341.738 152.107ZM345.703 145.312L347.685 141.914L345.958 140.906L343.975 144.304L345.703 145.312ZM349.668 138.516L351.651 135.118L349.923 134.11L347.941 137.508L349.668 138.516ZM353.633 131.72L355.616 128.322L353.888 127.314L351.906 130.712L353.633 131.72ZM357.599 124.925L359.581 121.527L357.854 120.519L355.871 123.917L357.599 124.925ZM361.564 118.129L363.546 114.731L361.819 113.723L359.836 117.121L361.564 118.129ZM365.529 111.333L367.512 107.935L365.784 106.928L363.802 110.325L365.529 111.333ZM369.494 104.538L371.477 101.14L369.749 100.132L367.767 103.53L369.494 104.538ZM373.459 97.742L375.442 94.3442L373.715 93.3362L371.732 96.7341L373.459 97.742ZM377.425 90.9464L379.407 87.5485L377.68 86.5406L375.697 89.9384L377.425 90.9464ZM381.39 84.1507L383.372 80.7529L381.645 79.7449L379.662 83.1428L381.39 84.1507ZM385.355 77.355L387.338 73.9572L385.61 72.9493L383.628 76.3471L385.355 77.355ZM389.32 70.5594L391.303 67.1616L389.575 66.1536L387.593 69.5514L389.32 70.5594ZM393.285 63.7637L395.268 60.3659L393.541 59.358L391.558 62.7558L393.285 63.7637ZM397.251 56.9681L399.233 53.5702L397.506 52.5623L395.523 55.9601L397.251 56.9681ZM401.216 50.1724L403.199 46.7746L401.471 45.7666L399.488 49.1645L401.216 50.1724ZM405.181 43.3768L407.164 39.9789L405.436 38.971L403.454 42.3688L405.181 43.3768ZM409.146 36.5811L411.129 33.1833L409.402 32.1754L407.419 35.5732L409.146 36.5811ZM413.112 29.7855L415.094 26.3876L413.367 25.3797L411.384 28.7775L413.112 29.7855ZM417.077 22.9898L419.059 19.592L417.332 18.5841L415.349 21.9819L417.077 22.9898ZM421.042 16.1942L423.025 12.7964L421.297 11.7884L419.315 15.1862L421.042 16.1942ZM425.007 9.39854L426.99 6.00073L425.262 4.99278L423.28 8.39059L425.007 9.39854ZM428.972 2.6029L429.964 0.903969L428.236 -0.103979L427.245 1.59495L428.972 2.6029ZM429.1 1.4H431.095V-0.600004H429.1V1.4ZM435.085 1.4H439.075V-0.600004H435.085V1.4ZM443.065 1.4H447.055V-0.600004H443.065V1.4ZM451.045 1.4H455.035V-0.600004H451.045V1.4ZM459.025 1.4H463.015V-0.600004H459.025V1.4ZM467.005 1.4H469V-0.600004H467.005V1.4ZM468 0.399996V2.45H470V0.399996H468ZM468 6.55V10.65H470V6.55H468ZM468 14.75V18.85H470V14.75H468ZM468 22.95V27.05H470V22.95H468ZM468 31.15V35.25H470V31.15H468ZM468 39.35V43.45H470V39.35H468ZM468 47.55V51.65H470V47.55H468ZM468 55.75V59.85H470V55.75H468ZM468 63.95V68.05H470V63.95H468ZM468 72.15V76.25H470V72.15H468ZM468 80.35V84.45H470V80.35H468ZM468 88.55V92.65H470V88.55H468ZM468 96.75V100.85H470V96.75H468ZM468 104.95V109.05H470V104.95H468ZM468 113.15V117.25H470V113.15H468ZM468 121.35V125.45H470V121.35H468ZM468 129.55V133.65H470V129.55H468ZM468 137.75V141.85H470V137.75H468ZM468 145.95V148H470V145.95H468ZM469 149H470.85V147H469V149ZM474.55 149H478.25V147H474.55V149ZM481.95 149H485.65V147H481.95V149ZM489.35 149H491.2V147H489.35V149ZM490.2 148V149.875H492.2V148H490.2ZM490.2 153.625V157.375H492.2V153.625H490.2ZM490.2 161.125V164.875H492.2V161.125H490.2ZM490.2 168.625V172.375H492.2V168.625H490.2ZM490.2 176.125V179.875H492.2V176.125H490.2ZM490.2 183.625V185.5H492.2V183.625H490.2ZM491.2 184.5H489.35V186.5H491.2V184.5ZM485.65 184.5H481.95V186.5H485.65V184.5ZM478.25 184.5H474.55V186.5H478.25V184.5ZM470.85 184.5H469V186.5H470.85V184.5ZM468 185.5V187.438H470V185.5H468ZM468 191.312V195.188H470V191.312H468ZM468 199.062V202.938H470V199.062H468ZM468 206.812V210.688H470V206.812H468ZM468 214.562V218.438H470V214.562H468ZM468 222.312V226.188H470V222.312H468ZM468 230.062V232H470V230.062H468ZM469 231H467.005V233H469V231ZM463.015 231H459.025V233H463.015V231ZM455.035 231H451.045V233H455.035V231ZM447.055 231H443.065V233H447.055V231ZM439.075 231H435.085V233H439.075V231ZM431.095 231H429.1V233H431.095V231ZM430.1 232V230.062H428.1V232H430.1ZM430.1 226.188V222.312H428.1V226.188H430.1ZM430.1 218.438V214.562H428.1V218.438H430.1ZM430.1 210.688V206.812H428.1V210.688H430.1ZM430.1 202.938V199.062H428.1V202.938H430.1ZM430.1 195.188V191.312H428.1V195.188H430.1ZM430.1 187.438V185.5H428.1V187.438H430.1ZM429.1 147H427.03V149H429.1V147ZM422.89 147H418.75V149H422.89V147ZM414.61 147H410.47V149H414.61V147ZM406.33 147H402.19V149H406.33V147ZM398.05 147H393.91V149H398.05V147ZM389.77 147H387.7V149H389.77V147ZM388.58 148.474L389.537 146.699L387.776 145.751L386.82 147.526L388.58 148.474ZM391.449 143.149L393.362 139.599L391.601 138.651L389.688 142.201L391.449 143.149ZM395.274 136.049L397.187 132.499L395.426 131.551L393.513 135.101L395.274 136.049ZM399.099 128.949L401.012 125.399L399.251 124.451L397.338 128.001L399.099 128.949ZM402.924 121.849L404.837 118.299L403.076 117.351L401.163 120.901L402.924 121.849ZM406.749 114.749L408.662 111.199L406.901 110.251L404.988 113.801L406.749 114.749ZM410.574 107.649L412.487 104.099L410.726 103.151L408.813 106.701L410.574 107.649ZM414.399 100.549L416.312 96.9993L414.551 96.0507L412.638 99.6007L414.399 100.549ZM418.224 93.4493L420.137 89.8993L418.376 88.9507L416.463 92.5007L418.224 93.4493ZM422.049 86.3493L423.962 82.7993L422.201 81.8507L420.288 85.4007L422.049 86.3493ZM425.874 79.2493L427.787 75.6993L426.026 74.7507L424.113 78.3007L425.874 79.2493ZM429.699 72.1493L431.612 68.5993L429.851 67.6507L427.938 71.2007L429.699 72.1493ZM433.524 65.0493L434.48 63.2743L432.72 62.3257L431.763 64.1007L433.524 65.0493ZM432.604 62.7121L432.416 64.8371L434.409 65.0129L434.596 62.8879L432.604 62.7121ZM432.041 69.0871L431.666 73.3371L433.659 73.5129L434.034 69.2629L432.041 69.0871ZM431.291 77.5871L430.916 81.8371L432.909 82.0129L433.284 77.7629L431.291 77.5871ZM430.541 86.0871L430.166 90.3371L432.159 90.5129L432.534 86.2629L430.541 86.0871ZM429.791 94.5871L429.416 98.8371L431.409 99.0129L431.784 94.7629L429.791 94.5871ZM429.041 103.087L428.666 107.337L430.659 107.513L431.034 103.263L429.041 103.087ZM428.291 111.587L428.104 113.712L430.096 113.888L430.284 111.763L428.291 111.587ZM428.1 113.8V115.938H430.1V113.8H428.1ZM428.1 120.212V124.487H430.1V120.212H428.1ZM428.1 128.762V133.037H430.1V128.762H428.1ZM428.1 137.312V141.587H430.1V137.312H428.1ZM428.1 145.863V148H430.1V145.863H428.1Z" fill="#6C6F79"/>
</svg>
