<svg width="26" height="26" viewBox="0 0 26 26" fill="none" xmlns="http://www.w3.org/2000/svg">
<path d="M23.4105 19.2766C24.0346 18.1117 24.3651 16.8123 24.3735 15.4908C24.3818 14.1693 24.0677 12.8658 23.4584 11.6932C22.8491 10.5206 21.9629 9.51425 20.8768 8.76151C19.7906 8.00877 18.5373 7.53232 17.2254 7.37345C16.7934 6.36599 16.1621 5.45635 15.3693 4.69929C14.5766 3.94222 13.6389 3.3534 12.6126 2.96825C11.5864 2.5831 10.4928 2.4096 9.39769 2.45818C8.30261 2.50677 7.22868 2.77644 6.24055 3.25096C5.25242 3.72548 4.37053 4.39503 3.64796 5.21933C2.92539 6.04362 2.37708 7.0056 2.03605 8.04735C1.69501 9.08911 1.5683 10.1891 1.66354 11.2811C1.75878 12.3731 2.07399 13.4346 2.59022 14.4016L1.96053 16.5953C1.88755 16.8394 1.88195 17.0986 1.94432 17.3455C2.00669 17.5925 2.13472 17.818 2.31482 17.9981C2.49493 18.1782 2.7204 18.3062 2.96736 18.3686C3.21431 18.4309 3.47354 18.4253 3.71756 18.3524L5.91131 17.7227C6.80227 18.1976 7.77321 18.504 8.77538 18.6266C9.21804 19.664 9.87186 20.5979 10.6952 21.3688C11.5186 22.1398 12.4934 22.7308 13.5577 23.1043C14.6219 23.4779 15.7523 23.6258 16.8769 23.5385C18.0014 23.4513 19.0955 23.1309 20.0894 22.5977L22.2832 23.2274C22.5272 23.3003 22.7864 23.3059 23.0334 23.2436C23.2803 23.1812 23.5058 23.0532 23.6859 22.8731C23.866 22.693 23.9941 22.4675 24.0564 22.2205C24.1188 21.9736 24.1132 21.7144 24.0402 21.4703L23.4105 19.2766ZM21.8465 18.7586C21.7874 18.851 21.7486 18.955 21.7329 19.0636C21.7171 19.1722 21.7247 19.2829 21.7551 19.3883L22.3848 21.5719L20.2012 20.9422C20.0957 20.9118 19.985 20.9042 19.8765 20.92C19.7679 20.9358 19.6639 20.9745 19.5715 21.0336C18.8269 21.4729 18.0025 21.7598 17.146 21.8775C16.2896 21.9953 15.4183 21.9415 14.5829 21.7194C13.7474 21.4973 12.9644 21.1113 12.2795 20.5838C11.5946 20.0563 11.0214 19.3979 10.5933 18.6469C12.5902 18.4341 14.4381 17.491 15.7822 15.9989C17.1262 14.5068 17.8717 12.5707 17.8754 10.5625C17.8731 10.0755 17.8289 9.58961 17.7433 9.11017C19.1687 9.44656 20.4387 10.2544 21.3475 11.4029C22.2563 12.5513 22.7506 13.973 22.7504 15.4375C22.749 16.6051 22.437 17.7514 21.8465 18.7586Z" fill="white"/>
</svg>
