<svg width="66" height="58" viewBox="0 0 66 58" fill="none" xmlns="http://www.w3.org/2000/svg">
<path d="M33 56.5L33.2443 56.9363L33.2444 56.9362L33.2446 56.9361L33.2451 56.9359L33.2468 56.9349L33.2533 56.9312L33.2779 56.9173C33.2994 56.9051 33.3312 56.887 33.3729 56.8632C33.4562 56.8155 33.5789 56.7446 33.7378 56.6513C34.0557 56.4647 34.5187 56.1882 35.1016 55.8275C35.3364 55.6822 35.409 55.374 35.2637 55.1392C35.2634 55.1388 35.2631 55.1384 35.2629 55.1379C36.035 54.6538 36.9761 54.0468 38.041 53.3269C38.0412 53.3272 38.0414 53.3276 38.0417 53.3279C38.1974 53.5559 38.5086 53.6145 38.7366 53.4587C39.8146 52.7223 41.0062 51.8782 42.2689 50.936C42.4902 50.7709 42.5358 50.4576 42.3706 50.2363C42.3704 50.2359 42.3701 50.2356 42.3699 50.2353C43.2168 49.5968 44.0931 48.9154 44.9861 48.1939C44.9864 48.1942 44.9867 48.1946 44.987 48.1949C45.1616 48.4088 45.4766 48.4406 45.6905 48.2659C46.7752 47.38 47.882 46.4361 48.989 45.4389C49.1941 45.254 49.2106 44.9379 49.0258 44.7327C49.0255 44.7324 49.0251 44.732 49.0248 44.7316C49.8296 43.9978 50.633 43.2361 51.4264 42.4484C51.4268 42.4488 51.4272 42.4492 51.4276 42.4496C51.6235 42.6442 51.9401 42.6432 52.1347 42.4473C53.1467 41.4287 54.141 40.3675 55.1 39.2676C55.2814 39.0595 55.2598 38.7436 55.0516 38.5622C55.0511 38.5617 55.0506 38.5613 55.0501 38.5608C55.7691 37.722 56.4662 36.8615 57.1335 35.981C57.1341 35.9815 57.1348 35.982 57.1355 35.9825C57.3572 36.1471 57.6704 36.1008 57.835 35.8791C58.7053 34.7068 59.523 33.4989 60.2702 32.2592C60.4127 32.0227 60.3365 31.7154 60.1 31.5729C60.0991 31.5723 60.0983 31.5718 60.0974 31.5713C60.6596 30.6113 61.1778 29.6334 61.6434 28.6394C61.6446 28.6399 61.6458 28.6404 61.6469 28.6409C61.8987 28.7543 62.1948 28.642 62.3081 28.3902C62.9125 27.0471 63.4225 25.6734 63.8174 24.2734C63.8924 24.0077 63.7378 23.7314 63.472 23.6565C63.4705 23.656 63.4689 23.6556 63.4674 23.6552C63.7476 22.584 63.9581 21.499 64.0898 20.402C64.0916 20.4022 64.0935 20.4024 64.0953 20.4026C64.3701 20.4295 64.6147 20.2285 64.6416 19.9537C64.713 19.2243 64.75 18.4895 64.75 17.75C64.75 16.7855 64.6668 15.8284 64.5038 14.8886C64.4566 14.6165 64.1978 14.4342 63.9257 14.4813C63.9232 14.4818 63.9207 14.4822 63.9182 14.4827C63.6107 12.985 63.0934 11.538 62.3816 10.1848C62.3839 10.1836 62.3861 10.1824 62.3884 10.1811C62.6287 10.0451 62.7132 9.74002 62.5772 9.49969C62.1074 8.66957 61.565 7.87661 60.9535 7.13071C60.342 6.38481 59.6708 5.69741 58.9489 5.07391C58.74 4.8934 58.4242 4.91649 58.2437 5.12547C58.242 5.12741 58.2404 5.12937 58.2387 5.13133C57.0515 4.16802 55.734 3.37694 54.3257 2.78176C54.3266 2.77938 54.3276 2.777 54.3285 2.7746C54.4281 2.51706 54.3001 2.22752 54.0426 2.1279C53.1529 1.78379 52.2307 1.51446 51.2849 1.3253C50.3392 1.13614 49.3843 1.03006 48.4308 1.00554C48.1547 0.998436 47.9252 1.21646 47.9181 1.49252C47.918 1.49508 47.918 1.49765 47.9179 1.50021C46.389 1.50795 44.8686 1.73145 43.4022 2.16402C43.4014 2.16158 43.4007 2.15913 43.3999 2.15669C43.3136 1.89436 43.031 1.75162 42.7687 1.83786C41.8626 2.13576 40.9786 2.51214 40.1273 2.96547C39.276 3.41881 38.4703 3.94214 37.7173 4.52771C37.4993 4.69723 37.46 5.01137 37.6296 5.22935C37.6311 5.23138 37.6327 5.23339 37.6343 5.23539C36.4569 6.21067 35.4228 7.34744 34.563 8.61166C34.5608 8.61026 34.5587 8.60887 34.5565 8.60749C34.3235 8.45929 34.0145 8.52805 33.8663 8.76106C33.5517 9.25569 33.2624 9.76793 33 10.296C32.7376 9.76793 32.4483 9.25569 32.1337 8.76106C31.9855 8.52805 31.6765 8.45929 31.4435 8.60749C31.4413 8.60887 31.4392 8.61026 31.437 8.61167C30.5772 7.34743 29.5431 6.21067 28.3657 5.23539C28.3673 5.23339 28.3689 5.23138 28.3704 5.22935C28.54 5.01137 28.5007 4.69723 28.2827 4.52771C27.5297 3.94214 26.724 3.41881 25.8727 2.96547C25.0214 2.51214 24.1374 2.13576 23.2313 1.83786C22.969 1.75162 22.6864 1.89436 22.6001 2.15669C22.5993 2.15913 22.5986 2.16158 22.5978 2.16402C21.1314 1.73145 19.611 1.50795 18.0821 1.50021C18.082 1.49765 18.082 1.49508 18.0819 1.49252C18.0748 1.21646 17.8453 0.998436 17.5692 1.00554C16.6157 1.03006 15.6608 1.13614 14.7151 1.3253C13.7693 1.51446 12.8471 1.78379 11.9574 2.1279C11.6999 2.22752 11.5719 2.51706 11.6715 2.7746C11.6724 2.777 11.6734 2.77938 11.6743 2.78176C10.266 3.37694 8.94852 4.16802 7.76126 5.13133C7.75962 5.12937 7.75796 5.12741 7.75628 5.12547C7.57577 4.91649 7.26003 4.8934 7.05105 5.07391C6.32919 5.69741 5.65801 6.38481 5.04652 7.13071C4.43503 7.87661 3.8926 8.66957 3.42278 9.49969C3.28676 9.74002 3.37132 10.0451 3.61164 10.1811C3.61388 10.1824 3.61612 10.1836 3.61837 10.1848C2.9066 11.538 2.38927 12.985 2.08184 14.4827C2.07932 14.4822 2.0768 14.4818 2.07427 14.4813C1.80218 14.4342 1.54337 14.6165 1.4962 14.8886C1.33324 15.8284 1.25 16.7855 1.25 17.75C1.25 18.4895 1.28699 19.2243 1.35839 19.9537C1.38529 20.2285 1.6299 20.4295 1.90472 20.4026C1.90655 20.4024 1.90837 20.4022 1.91018 20.402C2.04188 21.499 2.25235 22.584 2.53259 23.6552C2.53107 23.6556 2.52954 23.656 2.52801 23.6565C2.26224 23.7314 2.10758 24.0077 2.18256 24.2734C2.57755 25.6734 3.08747 27.0471 3.69192 28.3902C3.80525 28.642 4.10125 28.7543 4.35307 28.6409C4.35423 28.6404 4.35539 28.6399 4.35655 28.6394C4.82223 29.6334 5.34036 30.6113 5.90264 31.5713C5.90174 31.5718 5.90085 31.5723 5.89996 31.5729C5.66345 31.7154 5.58727 32.0227 5.72982 32.2592C6.47695 33.4989 7.29472 34.7068 8.16504 35.8791C8.32964 36.1008 8.64282 36.1471 8.86454 35.9825C8.86521 35.982 8.86587 35.9815 8.86653 35.981C9.53381 36.8615 10.2309 37.722 10.9499 38.5608C10.9494 38.5612 10.9489 38.5617 10.9484 38.5622C10.7402 38.7436 10.7186 39.0595 10.9 39.2676C11.859 40.3675 12.8533 41.4287 13.8653 42.4473C14.0599 42.6432 14.3765 42.6442 14.5724 42.4496C14.5728 42.4492 14.5732 42.4488 14.5736 42.4484C15.367 43.2361 16.1704 43.9978 16.9752 44.7316C16.9749 44.732 16.9745 44.7324 16.9742 44.7327C16.7894 44.9379 16.8059 45.254 17.011 45.4389C18.118 46.4361 19.2248 47.38 20.3095 48.2659C20.5234 48.4406 20.8384 48.4088 21.013 48.1949C21.0133 48.1946 21.0136 48.1942 21.0139 48.1939C21.9069 48.9154 22.7832 49.5968 23.6301 50.2353C23.6299 50.2356 23.6296 50.2359 23.6294 50.2363C23.4642 50.4576 23.5098 50.7709 23.7311 50.936C24.9938 51.8782 26.1854 52.7223 27.2634 53.4587C27.4914 53.6145 27.8026 53.5559 27.9583 53.3279C27.9586 53.3276 27.9588 53.3272 27.959 53.3269C29.0239 54.0468 29.965 54.6538 30.7371 55.1379C30.7368 55.1384 30.7366 55.1388 30.7363 55.1392C30.591 55.374 30.6636 55.6822 30.8984 55.8275C31.4813 56.1882 31.9443 56.4647 32.2622 56.6513C32.4211 56.7446 32.5438 56.8155 32.6271 56.8632C32.6688 56.887 32.7006 56.9051 32.7221 56.9173L32.7467 56.9312L32.7532 56.9349L32.7549 56.9359L32.7554 56.9361L32.7556 56.9362L32.7557 56.9363L33 56.5ZM33 56.5L32.7557 56.9363C32.9075 57.0213 33.0925 57.0213 33.2443 56.9363L33 56.5Z" stroke="#6C6F79" stroke-linecap="round" stroke-linejoin="round" stroke-dasharray="4 4"/>
</svg>
