<svg width="99" height="26" viewBox="0 0 99 26" fill="none" xmlns="http://www.w3.org/2000/svg">
<path d="M23.9883 11.0731C16.2511 16.4968 7.27856 24.4475 5.71484 26.0002H7.24199C9.78042 26.0002 10.557 25.6058 12.6739 24.2843C13.0805 24.0303 14.5427 23.1193 15.0389 22.7937C24.1775 16.8263 29.8256 14.7317 37.6061 15.4505C44.2089 16.0603 51.1278 19.0238 58.8127 22.5967C66.4001 26.126 68.6429 26.9497 74.9351 24.51C86.7402 19.9313 97.0013 13.8074 98.298 12.9419C98.298 12.9419 89.2055 10.8054 77.0803 8.92945C62.1666 6.62457 46.629 5.16465 30.2554 8.12655C27.8286 8.69234 26.4053 9.34072 23.9883 11.0731Z" fill="#ED2438"/>
<path d="M18.6403 5.55846C15.4712 8.5239 6.23481 18.6112 0 26H3.54539C4.0467 25.4998 4.61919 24.9376 5.16258 24.3985C13.2422 16.4038 23.0071 7.59085 37.7411 0.0219526C37.7411 0.0219526 31.8888 -0.29102 25.378 1.44648C22.4786 2.21792 20.9503 3.18792 18.6403 5.55846Z" fill="#ED2438"/>
</svg>
