<svg width="392" height="30" viewBox="0 0 392 30" fill="none" xmlns="http://www.w3.org/2000/svg">
<path d="M27.6785 12.7761C18.751 19.0341 8.39804 28.208 6.59375 29.9996H8.35584C11.2848 29.9996 12.1808 29.5445 14.6234 28.0197C15.0925 27.7266 16.7798 26.6755 17.3523 26.2998C27.8968 19.4143 34.4139 16.9976 43.3913 17.8269C51.0099 18.5305 58.9934 21.9499 67.8605 26.0725C76.6152 30.1448 79.203 31.0952 86.4632 28.2801C100.085 22.997 111.924 15.931 113.42 14.9324C113.42 14.9324 102.929 12.4671 88.9385 10.3026C71.7304 7.64313 53.8023 5.95861 34.9097 9.37618C32.1096 10.029 30.4673 10.7772 27.6785 12.7761Z" fill="#ED2438"/>
<path d="M21.5081 6.41361C17.8514 9.83527 7.19401 21.4744 0 30H4.09083C4.66928 29.4229 5.32984 28.7741 5.95682 28.1521C15.2795 18.9275 26.5466 8.75867 43.5474 0.0253299C43.5474 0.0253299 36.7948 -0.335792 29.2823 1.66902C25.9369 2.55914 24.1734 3.67837 21.5081 6.41361Z" fill="#ED2438"/>
<path d="M176.495 0.743164L169.356 29.0083H161.584L168.718 0.743164H176.495Z" fill="#ED2438"/>
<path d="M196.414 11.479L194.599 18.2623H178.864L180.695 11.479H196.414Z" fill="#ED2438"/>
<path d="M256.522 0.743164L249.38 29.0083H241.614L248.746 0.743164H256.522Z" fill="#ED2438"/>
<path d="M137.297 29.9975C126.424 29.9975 119.767 27.3394 119.767 27.3394L126.462 0.743164H134.207L128.911 22.0947C128.911 22.0947 133.893 23.3506 138.383 23.3506C142.827 23.3506 148.706 22.0216 148.706 22.0216L150.005 17.1631H157.783L155.003 27.508C155.003 27.5071 148.065 29.9975 137.297 29.9975Z" fill="#ED2438"/>
<path d="M226.142 29.0078L228.372 20.1998C227.171 18.7673 224.05 15.1763 221.516 13.2675C218.116 10.6737 213.493 8.3966 212.261 7.8204L206.923 29.0087H199.149L206.289 0.743652H214.057C216.873 2.00398 221.285 4.2722 226.409 8.13436C227.954 9.29568 229.339 10.4418 230.558 11.5407L233.281 0.743652H241.054L233.923 29.0087H226.142V29.0078Z" fill="#ED2438"/>
<path d="M257.075 28.9699L264.195 0.743164H272.064C274.882 2.01509 279.253 4.2762 284.332 8.09911C285.868 9.26133 287.254 10.4066 288.48 11.5064L291.2 0.743164H298.969L291.85 28.9699H284.073L286.296 20.1699C285.096 18.7374 281.968 15.1429 279.432 13.2332C276.036 10.6474 271.419 8.36669 270.199 7.78246L264.844 28.9708H257.075V28.9699Z" fill="#ED2438"/>
<path d="M334.654 27.5899C334.654 27.5899 327.797 30 317.175 30C306.498 29.9661 299.841 27.3874 299.841 27.3874L306.082 2.49836C306.082 2.49836 312.835 0 323.618 0C334.432 0 340.895 2.66604 340.895 2.66604L339.13 9.2246C339.13 9.2246 332.361 6.67359 322.521 6.63881C317.633 6.63881 312.3 7.99816 312.3 7.99816L308.954 22.1008C308.954 22.1008 313.866 23.3576 318.266 23.3576C322.612 23.3576 328.472 22.0589 328.472 22.0589L329.702 16.9293C327.181 16.6046 324.155 16.3674 320.771 16.3558C320.236 16.3558 319.523 16.3745 319.082 16.4021L320.312 10.9202C320.755 10.8898 321.878 10.8738 322.417 10.8738C330.313 10.9086 336.347 12.5658 338.387 13.2196L334.654 27.5899Z" fill="#ED2438"/>
<path d="M352.985 26.382C352.948 27.9143 352.542 28.8189 350.493 28.8189C348.443 28.8189 348 27.8035 348 25.5881L348 22.782C348 20.5112 348.609 19.6066 350.566 19.6066C352.431 19.6066 352.874 20.5112 352.948 21.8405H353.816C353.723 19.7912 352.929 18.7389 350.566 18.7389C348.24 18.7389 347.077 19.7912 347.077 22.782V25.6435C347.077 28.5974 348.166 29.7235 350.493 29.7235C352.745 29.7235 353.853 28.6528 353.853 26.382H352.985Z" fill="white"/>
<path d="M361.439 26.6589C361.439 27.9328 361.051 28.8189 359.076 28.8189C357.063 28.8189 356.546 27.7666 356.546 25.5697V24.3512H362.399V22.7451C362.399 19.902 361.568 18.6651 359.076 18.6651C356.749 18.6651 355.66 19.7912 355.66 22.7451V25.6435C355.66 28.5789 356.749 29.6497 359.076 29.6497C361.272 29.6497 362.269 28.6158 362.269 26.6589H361.439ZM356.546 23.502V22.7081C356.546 20.4374 357.082 19.4405 359.076 19.4405C361.217 19.4405 361.586 20.6958 361.586 22.7635V23.502H356.546Z" fill="white"/>
<path d="M364.83 18.8681L364.83 29.5943H365.753V22.062C365.753 20.8251 366.399 19.4774 368.338 19.4774C370.276 19.4774 370.812 20.1974 370.812 22.5974V29.5943H371.735V22.5974C371.735 19.8097 370.959 18.6651 368.43 18.6651C367.101 18.6651 366.215 19.2189 365.716 20.0128L365.642 18.8681H364.83Z" fill="white"/>
<path d="M373.964 26.5666C373.964 28.9666 374.777 29.8712 377.25 29.6312V28.8189C375.497 28.9481 374.887 28.5605 374.887 26.5481V19.5697H377.121V18.702H374.887V16.1543L373.964 16.2835V26.5666Z" fill="white"/>
<path d="M384.588 26.6589C384.588 27.9328 384.2 28.8189 382.225 28.8189C380.212 28.8189 379.695 27.7666 379.695 25.5697V24.3512H385.548V22.7451C385.548 19.902 384.717 18.6651 382.225 18.6651C379.898 18.6651 378.809 19.7912 378.809 22.7451V25.6435C378.809 28.5789 379.898 29.6497 382.225 29.6497C384.422 29.6497 385.418 28.6158 385.418 26.6589H384.588ZM379.695 23.502V22.7081C379.695 20.4374 380.231 19.4405 382.225 19.4405C384.366 19.4405 384.735 20.6958 384.735 22.7635V23.502H379.695Z" fill="white"/>
<path d="M387.628 18.702V29.5943H388.551L388.57 21.9143C388.57 20.382 389.751 19.3297 391.395 19.5881V18.7205C390.065 18.4805 388.958 19.1081 388.515 19.9943L388.459 18.702H387.628Z" fill="white"/>
</svg>
