<svg width="272" height="24" viewBox="0 0 272 24" fill="none" xmlns="http://www.w3.org/2000/svg">
<path d="M22.0854 10.2176C14.9621 15.224 6.70137 22.5629 5.26172 23.9962H6.6677C9.00473 23.9962 9.71967 23.6322 11.6686 22.4123C12.0429 22.1779 13.3892 21.3369 13.846 21.0364C22.2595 15.5281 27.4595 13.5948 34.6226 14.2582C40.7016 14.8211 47.0716 17.5566 54.1467 20.8546C61.1321 24.1123 63.1969 24.8727 68.9899 22.6206C79.8584 18.3943 89.3053 12.7415 90.4992 11.9427C90.4992 11.9427 82.1281 9.97049 70.9649 8.23891C57.2345 6.11138 42.9297 4.76379 27.8552 7.49779C25.6209 8.02006 24.3105 8.61855 22.0854 10.2176Z" fill="#ED2438"/>
<path d="M17.1614 5.13078C14.2437 7.86805 5.74013 17.1792 0 23.9995H3.26409C3.72563 23.5378 4.2527 23.0188 4.75297 22.5212C12.1916 15.1417 21.1817 7.00679 34.7466 0.0202635C34.7466 0.0202635 29.3587 -0.268628 23.3645 1.33519C20.6952 2.04727 19.2881 2.94264 17.1614 5.13078Z" fill="#ED2438"/>
<path d="M140.828 0.597656L135.132 23.2093H128.931L134.623 0.597656H140.828Z" fill="#ED2438"/>
<path d="M156.725 9.17773L155.277 14.6043H142.722L144.182 9.17773H156.725Z" fill="#ED2438"/>
<path d="M204.68 0.597656L198.981 23.2093H192.785L198.476 0.597656H204.68Z" fill="#ED2438"/>
<path d="M109.55 23.9996C100.875 23.9996 95.5625 21.8733 95.5625 21.8733L100.905 0.59668H107.085L102.859 17.6776C102.859 17.6776 106.834 18.6823 110.417 18.6823C113.963 18.6823 118.653 17.6191 118.653 17.6191L119.69 13.7324H125.896L123.678 22.0081C123.678 22.0074 118.142 23.9996 109.55 23.9996Z" fill="#ED2438"/>
<path d="M180.437 23.2085L182.217 16.1623C181.258 15.0163 178.768 12.1436 176.746 10.6166C174.033 8.54157 170.344 6.71989 169.361 6.25894L165.102 23.2093H158.899L164.596 0.597656H170.794C173.041 1.6059 176.562 3.42044 180.65 6.5101C181.883 7.43914 182.988 8.35605 183.96 9.23514L186.133 0.597656H192.335L186.645 23.2093H180.437V23.2085Z" fill="#ED2438"/>
<path d="M205.118 23.1786L210.799 0.597656H217.077C219.326 1.61518 222.814 3.42403 226.867 6.4823C228.092 7.41205 229.198 8.32823 230.176 9.20804L232.347 0.597656H238.546L232.865 23.1786H226.66L228.433 16.1387C227.476 14.9928 224.98 12.1172 222.957 10.5895C220.247 8.52089 216.563 6.69635 215.59 6.22898L211.317 23.1793H205.118V23.1786Z" fill="#ED2438"/>
<path d="M267.02 22.0715C267.02 22.0715 261.549 23.9995 253.073 23.9995C244.554 23.9724 239.242 21.9095 239.242 21.9095L244.222 1.99865C244.222 1.99865 249.61 0 258.214 0C266.842 0 271.999 2.13278 271.999 2.13278L270.591 7.37953C270.591 7.37953 265.19 5.33876 257.339 5.31094C253.438 5.31094 249.183 6.3984 249.183 6.3984L246.514 17.6803C246.514 17.6803 250.433 18.6857 253.944 18.6857C257.412 18.6857 262.087 17.6468 262.087 17.6468L263.068 13.5431C261.057 13.2834 258.643 13.0936 255.943 13.0843C255.516 13.0843 254.946 13.0993 254.595 13.1214L255.576 8.73596C255.93 8.7117 256.826 8.69888 257.256 8.69888C263.556 8.7267 268.37 10.0525 269.998 10.5755L267.02 22.0715Z" fill="#ED2438"/>
</svg>
