<svg width="30" height="60" viewBox="0 0 30 60" fill="none" xmlns="http://www.w3.org/2000/svg">
<path d="M30 60C26.0603 60 22.1593 59.224 18.5195 57.7164C14.8797 56.2087 11.5726 53.999 8.78679 51.2132C6.00104 48.4274 3.79125 45.1203 2.28361 41.4805C0.77597 37.8407 0 33.9397 0 30C0 26.0603 0.77597 22.1593 2.28361 18.5195C3.79125 14.8797 6.00104 11.5726 8.78679 8.7868C11.5726 6.00104 14.8797 3.79125 18.5195 2.28361C22.1593 0.775973 26.0603 -1.72208e-07 30 0V60Z" fill="#201E1E"/>
<path d="M16 25.5L20.5 30L16 34.5" stroke="white" stroke-linecap="round" stroke-linejoin="round"/>
</svg>

