<svg width="30" height="60" viewBox="0 0 30 60" fill="none" xmlns="http://www.w3.org/2000/svg">
<path d="M0 60C3.93966 60 7.84074 59.224 11.4805 57.7164C15.1203 56.2087 18.4274 53.999 21.2132 51.2132C23.999 48.4274 26.2087 45.1203 27.7164 41.4805C29.224 37.8407 30 33.9397 30 30C30 26.0603 29.224 22.1593 27.7164 18.5195C26.2087 14.8797 23.999 11.5726 21.2132 8.7868C18.4274 6.00104 15.1203 3.79125 11.4805 2.28361C7.84074 0.775973 3.93966 -1.72208e-07 0 0V60Z" fill="#201E1E"/>
<path d="M14 25.5L9.5 30L14 34.5" stroke="white" stroke-linecap="round" stroke-linejoin="round"/>
</svg>