<svg width="26" height="26" viewBox="0 0 26 26" fill="none" xmlns="http://www.w3.org/2000/svg">
<path d="M22.5469 16.0877L17.7836 14.0565C17.5378 13.9463 17.268 13.9006 16.9997 13.9237C16.7313 13.9468 16.4733 14.038 16.25 14.1885L13.7008 15.8846C12.1471 15.13 10.8892 13.8792 10.1258 12.3299L11.8117 9.75022C11.9613 9.52666 12.0526 9.26929 12.0774 9.00147C12.1023 8.73365 12.0598 8.46387 11.9539 8.21663L9.9125 3.45335C9.77005 3.13171 9.52885 2.86381 9.22388 2.6885C8.91891 2.51319 8.56603 2.43958 8.21641 2.47835C6.8449 2.65801 5.5853 3.32962 4.6718 4.36828C3.75829 5.40695 3.25305 6.742 3.25 8.12522C3.25 16.1893 9.81094 22.7502 17.875 22.7502C19.2582 22.7472 20.5933 22.2419 21.6319 21.3284C22.6706 20.4149 23.3422 19.1553 23.5219 17.7838C23.5606 17.4342 23.487 17.0813 23.3117 16.7763C23.1364 16.4714 22.8685 16.2302 22.5469 16.0877Z" fill="white"/>
</svg>
