<svg width="20" height="20" viewBox="0 0 20 20" fill="none" xmlns="http://www.w3.org/2000/svg">
<path d="M10 20C15.5228 20 20 15.5228 20 10C20 4.47715 15.5228 0 10 0C4.47715 0 0 4.47715 0 10C0 15.5228 4.47715 20 10 20Z" fill="#F20000"/>
<path d="M14.7658 7.59504C14.5658 6.97398 13.904 6.60688 13.2895 6.52135C11.0992 6.28846 8.89036 6.28846 6.70004 6.52135C6.09083 6.60688 5.42899 6.97925 5.22899 7.59504C4.91716 9.18383 4.91716 10.8181 5.22899 12.4069C5.43425 13.0266 6.0961 13.395 6.71057 13.4806C8.90096 13.7121 11.1097 13.7121 13.3 13.4806C13.9093 13.395 14.5711 13.0214 14.7711 12.4069C15.0812 10.8177 15.0794 9.18349 14.7658 7.59504ZM8.80399 11.9161V8.08451L11.9237 10.0003C10.8724 10.6464 9.85136 11.2753 8.80399 11.9161Z" fill="white"/>
</svg>
